  0
SECTION
  2
ENTITIES
  0
POLYLINE
  5
2C
  8
1
 66
     1
 10
0.0
 20
0.0
 30
0.0
 70
     1
  0
VERTEX
  5
2D
  8
1
 10
-0.001
 20
-0.001
 30
0.0
  0
VERTEX
  5
2E
  8
1
 10
-0.001
 20
0.051
 30
0.0
  0
VERTEX
  5
2F
  8
1
 10
0.101
 20
0.051
 30
0.0
  0
VERTEX
  5
30
  8
1
 10
0.101
 20
-0.001
 30
0.0
  0
SEQEND
  5
31
  8
1
  0
POLYLINE
  5
33
  8
2
 66
     1
 10
0.0
 20
0.0
 30
0.0
 70
     1
  0
VERTEX
  5
34
  8
2
 10
1.548999999999999
 20
2.198999999999999
 30
0.0
  0
VERTEX
  5
35
  8
2
 10
1.548999999999999
 20
2.4009999999999989
 30
0.0
  0
VERTEX
  5
36
  8
2
 10
1.750999999999999
 20
2.4009999999999989
 30
0.0
  0
VERTEX
  5
37
  8
2
 10
1.750999999999999
 20
2.198999999999999
 30
0.0
  0
SEQEND
  5
38
  8
2
  0
POLYLINE
  5
39
  8
2
 66
     1
 10
0.0
 20
0.0
 30
0.0
 70
     1
  0
VERTEX
  5
3A
  8
2
 10
1.548999999999999
 20
1.899
 30
0.0
  0
VERTEX
  5
3B
  8
2
 10
1.548999999999999
 20
2.1009999999999991
 30
0.0
  0
VERTEX
  5
3C
  8
2
 10
1.750999999999999
 20
2.1009999999999991
 30
0.0
  0
VERTEX
  5
3D
  8
2
 10
1.750999999999999
 20
1.899
 30
0.0
  0
SEQEND
  5
3E
  8
2
  0
POLYLINE
  5
3F
  8
2
 66
     1
 10
0.0
 20
0.0
 30
0.0
 70
     1
  0
VERTEX
  5
40
  8
2
 10
1.649
 20
2.0889999999999991
 30
0.0
  0
VERTEX
  5
41
  8
2
 10
1.649
 20
2.210999999999999
 30
0.0
  0
VERTEX
  5
42
  8
2
 10
1.661
 20
2.210999999999999
 30
0.0
  0
VERTEX
  5
43
  8
2
 10
1.661
 20
2.0889999999999991
 30
0.0
  0
SEQEND
  5
44
  8
2
  0
POLYLINE
  5
46
  8
3
 66
     1
 10
0.0
 20
0.0
 30
0.0
 70
     1
  0
VERTEX
  5
47
  8
3
 10
1.7410000000000001
 20
2.2090000000000001
 30
0.0
  0
VERTEX
  5
48
  8
3
 10
1.6589999999999989
 20
2.2090000000000001
 30
0.0
  0
VERTEX
  5
49
  8
3
 10
1.6589999999999989
 20
2.2210000000000001
 30
0.0
  0
VERTEX
  5
4A
  8
3
 10
1.7290000000000001
 20
2.2210000000000001
 30
0.0
  0
VERTEX
  5
4B
  8
3
 10
1.7290000000000001
 20
2.379
 30
0.0
  0
VERTEX
  5
4C
  8
3
 10
1.5709999999999991
 20
2.379
 30
0.0
  0
VERTEX
  5
4D
  8
3
 10
1.5709999999999991
 20
2.2210000000000001
 30
0.0
  0
VERTEX
  5
4E
  8
3
 10
1.6509999999999989
 20
2.2210000000000001
 30
0.0
  0
VERTEX
  5
4F
  8
3
 10
1.6509999999999989
 20
2.2090000000000001
 30
0.0
  0
VERTEX
  5
50
  8
3
 10
1.5589999999999991
 20
2.2090000000000001
 30
0.0
  0
VERTEX
  5
51
  8
3
 10
1.5589999999999991
 20
2.391
 30
0.0
  0
VERTEX
  5
52
  8
3
 10
1.7410000000000001
 20
2.391
 30
0.0
  0
SEQEND
  5
53
  8
3
  0
POLYLINE
  5
54
  8
3
 66
     1
 10
0.0
 20
0.0
 30
0.0
 70
     1
  0
VERTEX
  5
55
  8
3
 10
1.6509999999999989
 20
2.0790000000000002
 30
0.0
  0
VERTEX
  5
56
  8
3
 10
1.5709999999999991
 20
2.0790000000000002
 30
0.0
  0
VERTEX
  5
57
  8
3
 10
1.5709999999999991
 20
1.921
 30
0.0
  0
VERTEX
  5
58
  8
3
 10
1.7290000000000001
 20
1.921
 30
0.0
  0
VERTEX
  5
59
  8
3
 10
1.7290000000000001
 20
2.0790000000000002
 30
0.0
  0
VERTEX
  5
5A
  8
3
 10
1.6589999999999989
 20
2.0790000000000002
 30
0.0
  0
VERTEX
  5
5B
  8
3
 10
1.6589999999999989
 20
2.0910000000000002
 30
0.0
  0
VERTEX
  5
5C
  8
3
 10
1.7410000000000001
 20
2.0910000000000002
 30
0.0
  0
VERTEX
  5
5D
  8
3
 10
1.7410000000000001
 20
1.9089999999999989
 30
0.0
  0
VERTEX
  5
5E
  8
3
 10
1.5589999999999991
 20
1.9089999999999989
 30
0.0
  0
VERTEX
  5
5F
  8
3
 10
1.5589999999999991
 20
2.0910000000000002
 30
0.0
  0
VERTEX
  5
60
  8
3
 10
1.6509999999999989
 20
2.0910000000000002
 30
0.0
  0
SEQEND
  5
61
  8
3
  0
POLYLINE
  5
62
  8
3
 66
     1
 10
0.0
 20
0.0
 30
0.0
 70
     1
  0
VERTEX
  5
63
  8
3
 10
1.4410000000000001
 20
2.2090000000000001
 30
0.0
  0
VERTEX
  5
64
  8
3
 10
1.399
 20
2.2090000000000001
 30
0.0
  0
VERTEX
  5
65
  8
3
 10
1.399
 20
2.2210000000000001
 30
0.0
  0
VERTEX
  5
66
  8
3
 10
1.429
 20
2.2210000000000001
 30
0.0
  0
VERTEX
  5
67
  8
3
 10
1.429
 20
2.379
 30
0.0
  0
VERTEX
  5
68
  8
3
 10
1.270999999999999
 20
2.379
 30
0.0
  0
VERTEX
  5
69
  8
3
 10
1.270999999999999
 20
2.2210000000000001
 30
0.0
  0
VERTEX
  5
6A
  8
3
 10
1.300999999999999
 20
2.2210000000000001
 30
0.0
  0
VERTEX
  5
6B
  8
3
 10
1.300999999999999
 20
2.2090000000000001
 30
0.0
  0
VERTEX
  5
6C
  8
3
 10
1.258999999999999
 20
2.2090000000000001
 30
0.0
  0
VERTEX
  5
6D
  8
3
 10
1.258999999999999
 20
2.391
 30
0.0
  0
VERTEX
  5
6E
  8
3
 10
1.4410000000000001
 20
2.391
 30
0.0
  0
SEQEND
  5
6F
  8
3
  0
POLYLINE
  5
70
  8
1
 66
     1
 10
0.0
 20
0.0
 30
0.0
 70
     1
  0
VERTEX
  5
71
  8
1
 10
1.048999999999999
 20
2.3490000000000002
 30
0.0
  0
VERTEX
  5
72
  8
1
 10
1.048999999999999
 20
2.500999999999999
 30
0.0
  0
VERTEX
  5
73
  8
1
 10
1.1009999999999991
 20
2.500999999999999
 30
0.0
  0
VERTEX
  5
74
  8
1
 10
1.1009999999999991
 20
2.3490000000000002
 30
0.0
  0
SEQEND
  5
75
  8
1
  0
POLYLINE
  5
76
  8
1
 66
     1
 10
0.0
 20
0.0
 30
0.0
 70
     1
  0
VERTEX
  5
77
  8
1
 10
0.4610000000000001
 20
1.7490000000000001
 30
0.0
  0
VERTEX
  5
78
  8
1
 10
0.4610000000000001
 20
1.800999999999999
 30
0.0
  0
VERTEX
  5
79
  8
1
 10
1.2010000000000001
 20
1.800999999999999
 30
0.0
  0
VERTEX
  5
7A
  8
1
 10
1.2010000000000001
 20
1.7490000000000001
 30
0.0
  0
SEQEND
  5
7B
  8
1
  0
POLYLINE
  5
7C
  8
1
 66
     1
 10
0.0
 20
0.0
 30
0.0
 70
     1
  0
VERTEX
  5
7D
  8
1
 10
0.4610000000000001
 20
1.421
 30
0.0
  0
VERTEX
  5
7E
  8
1
 10
0.4610000000000001
 20
1.756
 30
0.0
  0
VERTEX
  5
7F
  8
1
 10
0.4660000000000001
 20
1.756
 30
0.0
  0
VERTEX
  5
80
  8
1
 10
0.4660000000000001
 20
1.421
 30
0.0
  0
SEQEND
  5
81
  8
1
  0
POLYLINE
  5
82
  8
1
 66
     1
 10
0.0
 20
0.0
 30
0.0
 70
     1
  0
VERTEX
  5
83
  8
1
 10
0.476
 20
1.421
 30
0.0
  0
VERTEX
  5
84
  8
1
 10
0.476
 20
1.756
 30
0.0
  0
VERTEX
  5
85
  8
1
 10
0.481
 20
1.756
 30
0.0
  0
VERTEX
  5
86
  8
1
 10
0.481
 20
1.421
 30
0.0
  0
SEQEND
  5
87
  8
1
  0
POLYLINE
  5
88
  8
1
 66
     1
 10
0.0
 20
0.0
 30
0.0
 70
     1
  0
VERTEX
  5
89
  8
1
 10
0.4910000000000001
 20
1.421
 30
0.0
  0
VERTEX
  5
8A
  8
1
 10
0.4910000000000001
 20
1.756
 30
0.0
  0
VERTEX
  5
8B
  8
1
 10
0.496
 20
1.756
 30
0.0
  0
VERTEX
  5
8C
  8
1
 10
0.496
 20
1.421
 30
0.0
  0
SEQEND
  5
8D
  8
1
  0
POLYLINE
  5
8E
  8
1
 66
     1
 10
0.0
 20
0.0
 30
0.0
 70
     1
  0
VERTEX
  5
8F
  8
1
 10
0.5060000000000001
 20
1.421
 30
0.0
  0
VERTEX
  5
90
  8
1
 10
0.5060000000000001
 20
1.756
 30
0.0
  0
VERTEX
  5
91
  8
1
 10
0.5110000000000001
 20
1.756
 30
0.0
  0
VERTEX
  5
92
  8
1
 10
0.5110000000000001
 20
1.421
 30
0.0
  0
SEQEND
  5
93
  8
1
  0
POLYLINE
  5
94
  8
1
 66
     1
 10
0.0
 20
0.0
 30
0.0
 70
     1
  0
VERTEX
  5
95
  8
1
 10
0.521
 20
1.421
 30
0.0
  0
VERTEX
  5
96
  8
1
 10
0.521
 20
1.756
 30
0.0
  0
VERTEX
  5
97
  8
1
 10
0.526
 20
1.756
 30
0.0
  0
VERTEX
  5
98
  8
1
 10
0.526
 20
1.421
 30
0.0
  0
SEQEND
  5
99
  8
1
  0
POLYLINE
  5
9A
  8
1
 66
     1
 10
0.0
 20
0.0
 30
0.0
 70
     1
  0
VERTEX
  5
9B
  8
1
 10
0.5360000000000001
 20
1.421
 30
0.0
  0
VERTEX
  5
9C
  8
1
 10
0.5360000000000001
 20
1.756
 30
0.0
  0
VERTEX
  5
9D
  8
1
 10
0.5410000000000002
 20
1.756
 30
0.0
  0
VERTEX
  5
9E
  8
1
 10
0.5410000000000002
 20
1.421
 30
0.0
  0
SEQEND
  5
9F
  8
1
  0
POLYLINE
  5
A0
  8
1
 66
     1
 10
0.0
 20
0.0
 30
0.0
 70
     1
  0
VERTEX
  5
A1
  8
1
 10
0.5510000000000001
 20
1.421
 30
0.0
  0
VERTEX
  5
A2
  8
1
 10
0.5510000000000001
 20
1.756
 30
0.0
  0
VERTEX
  5
A3
  8
1
 10
0.5560000000000001
 20
1.756
 30
0.0
  0
VERTEX
  5
A4
  8
1
 10
0.5560000000000001
 20
1.421
 30
0.0
  0
SEQEND
  5
A5
  8
1
  0
POLYLINE
  5
A6
  8
1
 66
     1
 10
0.0
 20
0.0
 30
0.0
 70
     1
  0
VERTEX
  5
A7
  8
1
 10
0.566
 20
1.421
 30
0.0
  0
VERTEX
  5
A8
  8
1
 10
0.566
 20
1.756
 30
0.0
  0
VERTEX
  5
A9
  8
1
 10
0.571
 20
1.756
 30
0.0
  0
VERTEX
  5
AA
  8
1
 10
0.571
 20
1.421
 30
0.0
  0
SEQEND
  5
AB
  8
1
  0
POLYLINE
  5
AC
  8
1
 66
     1
 10
0.0
 20
0.0
 30
0.0
 70
     1
  0
VERTEX
  5
AD
  8
1
 10
0.581
 20
1.421
 30
0.0
  0
VERTEX
  5
AE
  8
1
 10
0.581
 20
1.756
 30
0.0
  0
VERTEX
  5
AF
  8
1
 10
0.586
 20
1.756
 30
0.0
  0
VERTEX
  5
B0
  8
1
 10
0.586
 20
1.421
 30
0.0
  0
SEQEND
  5
B1
  8
1
  0
POLYLINE
  5
B2
  8
1
 66
     1
 10
0.0
 20
0.0
 30
0.0
 70
     1
  0
VERTEX
  5
B3
  8
1
 10
0.596
 20
1.421
 30
0.0
  0
VERTEX
  5
B4
  8
1
 10
0.596
 20
1.756
 30
0.0
  0
VERTEX
  5
B5
  8
1
 10
0.601
 20
1.756
 30
0.0
  0
VERTEX
  5
B6
  8
1
 10
0.601
 20
1.421
 30
0.0
  0
SEQEND
  5
B7
  8
1
  0
POLYLINE
  5
B8
  8
1
 66
     1
 10
0.0
 20
0.0
 30
0.0
 70
     1
  0
VERTEX
  5
B9
  8
1
 10
0.611
 20
1.421
 30
0.0
  0
VERTEX
  5
BA
  8
1
 10
0.611
 20
1.756
 30
0.0
  0
VERTEX
  5
BB
  8
1
 10
0.6160000000000001
 20
1.756
 30
0.0
  0
VERTEX
  5
BC
  8
1
 10
0.6160000000000001
 20
1.421
 30
0.0
  0
SEQEND
  5
BD
  8
1
  0
POLYLINE
  5
BE
  8
1
 66
     1
 10
0.0
 20
0.0
 30
0.0
 70
     1
  0
VERTEX
  5
BF
  8
1
 10
0.626
 20
1.421
 30
0.0
  0
VERTEX
  5
C0
  8
1
 10
0.626
 20
1.756
 30
0.0
  0
VERTEX
  5
C1
  8
1
 10
0.6310000000000001
 20
1.756
 30
0.0
  0
VERTEX
  5
C2
  8
1
 10
0.6310000000000001
 20
1.421
 30
0.0
  0
SEQEND
  5
C3
  8
1
  0
POLYLINE
  5
C4
  8
1
 66
     1
 10
0.0
 20
0.0
 30
0.0
 70
     1
  0
VERTEX
  5
C5
  8
1
 10
0.6410000000000001
 20
1.421
 30
0.0
  0
VERTEX
  5
C6
  8
1
 10
0.6410000000000001
 20
1.756
 30
0.0
  0
VERTEX
  5
C7
  8
1
 10
0.646
 20
1.756
 30
0.0
  0
VERTEX
  5
C8
  8
1
 10
0.646
 20
1.421
 30
0.0
  0
SEQEND
  5
C9
  8
1
  0
POLYLINE
  5
CA
  8
1
 66
     1
 10
0.0
 20
0.0
 30
0.0
 70
     1
  0
VERTEX
  5
CB
  8
1
 10
0.6560000000000001
 20
1.421
 30
0.0
  0
VERTEX
  5
CC
  8
1
 10
0.6560000000000001
 20
1.756
 30
0.0
  0
VERTEX
  5
CD
  8
1
 10
0.6610000000000001
 20
1.756
 30
0.0
  0
VERTEX
  5
CE
  8
1
 10
0.6610000000000001
 20
1.421
 30
0.0
  0
SEQEND
  5
CF
  8
1
  0
POLYLINE
  5
D0
  8
1
 66
     1
 10
0.0
 20
0.0
 30
0.0
 70
     1
  0
VERTEX
  5
D1
  8
1
 10
0.6710000000000002
 20
1.421
 30
0.0
  0
VERTEX
  5
D2
  8
1
 10
0.6710000000000002
 20
1.756
 30
0.0
  0
VERTEX
  5
D3
  8
1
 10
0.6760000000000001
 20
1.756
 30
0.0
  0
VERTEX
  5
D4
  8
1
 10
0.6760000000000001
 20
1.421
 30
0.0
  0
SEQEND
  5
D5
  8
1
  0
POLYLINE
  5
D6
  8
1
 66
     1
 10
0.0
 20
0.0
 30
0.0
 70
     1
  0
VERTEX
  5
D7
  8
1
 10
0.6860000000000001
 20
1.421
 30
0.0
  0
VERTEX
  5
D8
  8
1
 10
0.6860000000000001
 20
1.756
 30
0.0
  0
VERTEX
  5
D9
  8
1
 10
0.691
 20
1.756
 30
0.0
  0
VERTEX
  5
DA
  8
1
 10
0.691
 20
1.421
 30
0.0
  0
SEQEND
  5
DB
  8
1
  0
POLYLINE
  5
DC
  8
1
 66
     1
 10
0.0
 20
0.0
 30
0.0
 70
     1
  0
VERTEX
  5
DD
  8
1
 10
0.701
 20
1.421
 30
0.0
  0
VERTEX
  5
DE
  8
1
 10
0.701
 20
1.756
 30
0.0
  0
VERTEX
  5
DF
  8
1
 10
0.706
 20
1.756
 30
0.0
  0
VERTEX
  5
E0
  8
1
 10
0.706
 20
1.421
 30
0.0
  0
SEQEND
  5
E1
  8
1
  0
POLYLINE
  5
E2
  8
1
 66
     1
 10
0.0
 20
0.0
 30
0.0
 70
     1
  0
VERTEX
  5
E3
  8
1
 10
0.7160000000000001
 20
1.421
 30
0.0
  0
VERTEX
  5
E4
  8
1
 10
0.7160000000000001
 20
1.756
 30
0.0
  0
VERTEX
  5
E5
  8
1
 10
0.721
 20
1.756
 30
0.0
  0
VERTEX
  5
E6
  8
1
 10
0.721
 20
1.421
 30
0.0
  0
SEQEND
  5
E7
  8
1
  0
POLYLINE
  5
E8
  8
1
 66
     1
 10
0.0
 20
0.0
 30
0.0
 70
     1
  0
VERTEX
  5
E9
  8
1
 10
0.731
 20
1.421
 30
0.0
  0
VERTEX
  5
EA
  8
1
 10
0.731
 20
1.756
 30
0.0
  0
VERTEX
  5
EB
  8
1
 10
0.736
 20
1.756
 30
0.0
  0
VERTEX
  5
EC
  8
1
 10
0.736
 20
1.421
 30
0.0
  0
SEQEND
  5
ED
  8
1
  0
POLYLINE
  5
EE
  8
1
 66
     1
 10
0.0
 20
0.0
 30
0.0
 70
     1
  0
VERTEX
  5
EF
  8
1
 10
0.746
 20
1.421
 30
0.0
  0
VERTEX
  5
F0
  8
1
 10
0.746
 20
1.756
 30
0.0
  0
VERTEX
  5
F1
  8
1
 10
0.751
 20
1.756
 30
0.0
  0
VERTEX
  5
F2
  8
1
 10
0.751
 20
1.421
 30
0.0
  0
SEQEND
  5
F3
  8
1
  0
POLYLINE
  5
F4
  8
1
 66
     1
 10
0.0
 20
0.0
 30
0.0
 70
     1
  0
VERTEX
  5
F5
  8
1
 10
0.7610000000000001
 20
1.421
 30
0.0
  0
VERTEX
  5
F6
  8
1
 10
0.7610000000000001
 20
1.756
 30
0.0
  0
VERTEX
  5
F7
  8
1
 10
0.7660000000000001
 20
1.756
 30
0.0
  0
VERTEX
  5
F8
  8
1
 10
0.7660000000000001
 20
1.421
 30
0.0
  0
SEQEND
  5
F9
  8
1
  0
POLYLINE
  5
FA
  8
1
 66
     1
 10
0.0
 20
0.0
 30
0.0
 70
     1
  0
VERTEX
  5
FB
  8
1
 10
0.776
 20
1.421
 30
0.0
  0
VERTEX
  5
FC
  8
1
 10
0.776
 20
1.756
 30
0.0
  0
VERTEX
  5
FD
  8
1
 10
0.7810000000000001
 20
1.756
 30
0.0
  0
VERTEX
  5
FE
  8
1
 10
0.7810000000000001
 20
1.421
 30
0.0
  0
SEQEND
  5
FF
  8
1
  0
POLYLINE
  5
100
  8
1
 66
     1
 10
0.0
 20
0.0
 30
0.0
 70
     1
  0
VERTEX
  5
101
  8
1
 10
0.7910000000000002
 20
1.421
 30
0.0
  0
VERTEX
  5
102
  8
1
 10
0.7910000000000002
 20
1.756
 30
0.0
  0
VERTEX
  5
103
  8
1
 10
0.7960000000000002
 20
1.756
 30
0.0
  0
VERTEX
  5
104
  8
1
 10
0.7960000000000002
 20
1.421
 30
0.0
  0
SEQEND
  5
105
  8
1
  0
POLYLINE
  5
106
  8
1
 66
     1
 10
0.0
 20
0.0
 30
0.0
 70
     1
  0
VERTEX
  5
107
  8
1
 10
0.8060000000000001
 20
1.421
 30
0.0
  0
VERTEX
  5
108
  8
1
 10
0.8060000000000001
 20
1.756
 30
0.0
  0
VERTEX
  5
109
  8
1
 10
0.8110000000000001
 20
1.756
 30
0.0
  0
VERTEX
  5
10A
  8
1
 10
0.8110000000000001
 20
1.421
 30
0.0
  0
SEQEND
  5
10B
  8
1
  0
POLYLINE
  5
10C
  8
1
 66
     1
 10
0.0
 20
0.0
 30
0.0
 70
     1
  0
VERTEX
  5
10D
  8
1
 10
0.821
 20
1.421
 30
0.0
  0
VERTEX
  5
10E
  8
1
 10
0.821
 20
1.756
 30
0.0
  0
VERTEX
  5
10F
  8
1
 10
0.8259999999999999
 20
1.756
 30
0.0
  0
VERTEX
  5
110
  8
1
 10
0.8259999999999999
 20
1.421
 30
0.0
  0
SEQEND
  5
111
  8
1
  0
POLYLINE
  5
112
  8
1
 66
     1
 10
0.0
 20
0.0
 30
0.0
 70
     1
  0
VERTEX
  5
113
  8
1
 10
0.8359999999999999
 20
1.421
 30
0.0
  0
VERTEX
  5
114
  8
1
 10
0.8359999999999999
 20
1.756
 30
0.0
  0
VERTEX
  5
115
  8
1
 10
0.841
 20
1.756
 30
0.0
  0
VERTEX
  5
116
  8
1
 10
0.841
 20
1.421
 30
0.0
  0
SEQEND
  5
117
  8
1
  0
POLYLINE
  5
118
  8
1
 66
     1
 10
0.0
 20
0.0
 30
0.0
 70
     1
  0
VERTEX
  5
119
  8
1
 10
0.8509999999999999
 20
1.421
 30
0.0
  0
VERTEX
  5
11A
  8
1
 10
0.8509999999999999
 20
1.756
 30
0.0
  0
VERTEX
  5
11B
  8
1
 10
0.856
 20
1.756
 30
0.0
  0
VERTEX
  5
11C
  8
1
 10
0.856
 20
1.421
 30
0.0
  0
SEQEND
  5
11D
  8
1
  0
POLYLINE
  5
11E
  8
1
 66
     1
 10
0.0
 20
0.0
 30
0.0
 70
     1
  0
VERTEX
  5
11F
  8
1
 10
0.866
 20
1.421
 30
0.0
  0
VERTEX
  5
120
  8
1
 10
0.866
 20
1.756
 30
0.0
  0
VERTEX
  5
121
  8
1
 10
0.871
 20
1.756
 30
0.0
  0
VERTEX
  5
122
  8
1
 10
0.871
 20
1.421
 30
0.0
  0
SEQEND
  5
123
  8
1
  0
POLYLINE
  5
124
  8
1
 66
     1
 10
0.0
 20
0.0
 30
0.0
 70
     1
  0
VERTEX
  5
125
  8
1
 10
0.881
 20
1.421
 30
0.0
  0
VERTEX
  5
126
  8
1
 10
0.881
 20
1.756
 30
0.0
  0
VERTEX
  5
127
  8
1
 10
0.8859999999999999
 20
1.756
 30
0.0
  0
VERTEX
  5
128
  8
1
 10
0.8859999999999999
 20
1.421
 30
0.0
  0
SEQEND
  5
129
  8
1
  0
POLYLINE
  5
12A
  8
1
 66
     1
 10
0.0
 20
0.0
 30
0.0
 70
     1
  0
VERTEX
  5
12B
  8
1
 10
0.896
 20
1.421
 30
0.0
  0
VERTEX
  5
12C
  8
1
 10
0.896
 20
1.756
 30
0.0
  0
VERTEX
  5
12D
  8
1
 10
0.9009999999999999
 20
1.756
 30
0.0
  0
VERTEX
  5
12E
  8
1
 10
0.9009999999999999
 20
1.421
 30
0.0
  0
SEQEND
  5
12F
  8
1
  0
POLYLINE
  5
130
  8
1
 66
     1
 10
0.0
 20
0.0
 30
0.0
 70
     1
  0
VERTEX
  5
131
  8
1
 10
0.9109999999999999
 20
1.421
 30
0.0
  0
VERTEX
  5
132
  8
1
 10
0.9109999999999999
 20
1.756
 30
0.0
  0
VERTEX
  5
133
  8
1
 10
0.916
 20
1.756
 30
0.0
  0
VERTEX
  5
134
  8
1
 10
0.916
 20
1.421
 30
0.0
  0
SEQEND
  5
135
  8
1
  0
POLYLINE
  5
136
  8
1
 66
     1
 10
0.0
 20
0.0
 30
0.0
 70
     1
  0
VERTEX
  5
137
  8
1
 10
0.9259999999999999
 20
1.421
 30
0.0
  0
VERTEX
  5
138
  8
1
 10
0.9259999999999999
 20
1.756
 30
0.0
  0
VERTEX
  5
139
  8
1
 10
0.9310000000000001
 20
1.756
 30
0.0
  0
VERTEX
  5
13A
  8
1
 10
0.9310000000000001
 20
1.421
 30
0.0
  0
SEQEND
  5
13B
  8
1
  0
POLYLINE
  5
13C
  8
1
 66
     1
 10
0.0
 20
0.0
 30
0.0
 70
     1
  0
VERTEX
  5
13D
  8
1
 10
0.941
 20
1.421
 30
0.0
  0
VERTEX
  5
13E
  8
1
 10
0.941
 20
1.756
 30
0.0
  0
VERTEX
  5
13F
  8
1
 10
0.946
 20
1.756
 30
0.0
  0
VERTEX
  5
140
  8
1
 10
0.946
 20
1.421
 30
0.0
  0
SEQEND
  5
141
  8
1
  0
POLYLINE
  5
142
  8
1
 66
     1
 10
0.0
 20
0.0
 30
0.0
 70
     1
  0
VERTEX
  5
143
  8
1
 10
0.9559999999999999
 20
1.421
 30
0.0
  0
VERTEX
  5
144
  8
1
 10
0.9559999999999999
 20
1.756
 30
0.0
  0
VERTEX
  5
145
  8
1
 10
0.9609999999999999
 20
1.756
 30
0.0
  0
VERTEX
  5
146
  8
1
 10
0.9609999999999999
 20
1.421
 30
0.0
  0
SEQEND
  5
147
  8
1
  0
POLYLINE
  5
148
  8
1
 66
     1
 10
0.0
 20
0.0
 30
0.0
 70
     1
  0
VERTEX
  5
149
  8
1
 10
0.9709999999999999
 20
1.421
 30
0.0
  0
VERTEX
  5
14A
  8
1
 10
0.9709999999999999
 20
1.756
 30
0.0
  0
VERTEX
  5
14B
  8
1
 10
0.9759999999999999
 20
1.756
 30
0.0
  0
VERTEX
  5
14C
  8
1
 10
0.9759999999999999
 20
1.421
 30
0.0
  0
SEQEND
  5
14D
  8
1
  0
POLYLINE
  5
14E
  8
1
 66
     1
 10
0.0
 20
0.0
 30
0.0
 70
     1
  0
VERTEX
  5
14F
  8
1
 10
0.9859999999999999
 20
1.421
 30
0.0
  0
VERTEX
  5
150
  8
1
 10
0.9859999999999999
 20
1.756
 30
0.0
  0
VERTEX
  5
151
  8
1
 10
0.991
 20
1.756
 30
0.0
  0
VERTEX
  5
152
  8
1
 10
0.991
 20
1.421
 30
0.0
  0
SEQEND
  5
153
  8
1
  0
POLYLINE
  5
154
  8
1
 66
     1
 10
0.0
 20
0.0
 30
0.0
 70
     1
  0
VERTEX
  5
155
  8
1
 10
1.000999999999999
 20
1.421
 30
0.0
  0
VERTEX
  5
156
  8
1
 10
1.000999999999999
 20
1.756
 30
0.0
  0
VERTEX
  5
157
  8
1
 10
1.006
 20
1.756
 30
0.0
  0
VERTEX
  5
158
  8
1
 10
1.006
 20
1.421
 30
0.0
  0
SEQEND
  5
159
  8
1
  0
POLYLINE
  5
15A
  8
1
 66
     1
 10
0.0
 20
0.0
 30
0.0
 70
     1
  0
VERTEX
  5
15B
  8
1
 10
1.016
 20
1.421
 30
0.0
  0
VERTEX
  5
15C
  8
1
 10
1.016
 20
1.756
 30
0.0
  0
VERTEX
  5
15D
  8
1
 10
1.020999999999999
 20
1.756
 30
0.0
  0
VERTEX
  5
15E
  8
1
 10
1.020999999999999
 20
1.421
 30
0.0
  0
SEQEND
  5
15F
  8
1
  0
POLYLINE
  5
160
  8
1
 66
     1
 10
0.0
 20
0.0
 30
0.0
 70
     1
  0
VERTEX
  5
161
  8
1
 10
1.030999999999999
 20
1.421
 30
0.0
  0
VERTEX
  5
162
  8
1
 10
1.030999999999999
 20
1.756
 30
0.0
  0
VERTEX
  5
163
  8
1
 10
1.036
 20
1.756
 30
0.0
  0
VERTEX
  5
164
  8
1
 10
1.036
 20
1.421
 30
0.0
  0
SEQEND
  5
165
  8
1
  0
POLYLINE
  5
166
  8
1
 66
     1
 10
0.0
 20
0.0
 30
0.0
 70
     1
  0
VERTEX
  5
167
  8
1
 10
1.046
 20
1.421
 30
0.0
  0
VERTEX
  5
168
  8
1
 10
1.046
 20
1.756
 30
0.0
  0
VERTEX
  5
169
  8
1
 10
1.050999999999999
 20
1.756
 30
0.0
  0
VERTEX
  5
16A
  8
1
 10
1.050999999999999
 20
1.421
 30
0.0
  0
SEQEND
  5
16B
  8
1
  0
POLYLINE
  5
16C
  8
1
 66
     1
 10
0.0
 20
0.0
 30
0.0
 70
     1
  0
VERTEX
  5
16D
  8
1
 10
1.0609999999999991
 20
1.421
 30
0.0
  0
VERTEX
  5
16E
  8
1
 10
1.0609999999999991
 20
1.756
 30
0.0
  0
VERTEX
  5
16F
  8
1
 10
1.0660000000000001
 20
1.756
 30
0.0
  0
VERTEX
  5
170
  8
1
 10
1.0660000000000001
 20
1.421
 30
0.0
  0
SEQEND
  5
171
  8
1
  0
POLYLINE
  5
172
  8
1
 66
     1
 10
0.0
 20
0.0
 30
0.0
 70
     1
  0
VERTEX
  5
173
  8
1
 10
1.0760000000000001
 20
1.421
 30
0.0
  0
VERTEX
  5
174
  8
1
 10
1.0760000000000001
 20
1.756
 30
0.0
  0
VERTEX
  5
175
  8
1
 10
1.0809999999999991
 20
1.756
 30
0.0
  0
VERTEX
  5
176
  8
1
 10
1.0809999999999991
 20
1.421
 30
0.0
  0
SEQEND
  5
177
  8
1
  0
POLYLINE
  5
178
  8
1
 66
     1
 10
0.0
 20
0.0
 30
0.0
 70
     1
  0
VERTEX
  5
179
  8
1
 10
1.0909999999999991
 20
1.421
 30
0.0
  0
VERTEX
  5
17A
  8
1
 10
1.0909999999999991
 20
1.756
 30
0.0
  0
VERTEX
  5
17B
  8
1
 10
1.0960000000000001
 20
1.756
 30
0.0
  0
VERTEX
  5
17C
  8
1
 10
1.0960000000000001
 20
1.421
 30
0.0
  0
SEQEND
  5
17D
  8
1
  0
POLYLINE
  5
17E
  8
1
 66
     1
 10
0.0
 20
0.0
 30
0.0
 70
     1
  0
VERTEX
  5
17F
  8
1
 10
1.1060000000000001
 20
1.421
 30
0.0
  0
VERTEX
  5
180
  8
1
 10
1.1060000000000001
 20
1.756
 30
0.0
  0
VERTEX
  5
181
  8
1
 10
1.1109999999999991
 20
1.756
 30
0.0
  0
VERTEX
  5
182
  8
1
 10
1.1109999999999991
 20
1.421
 30
0.0
  0
SEQEND
  5
183
  8
1
  0
POLYLINE
  5
184
  8
1
 66
     1
 10
0.0
 20
0.0
 30
0.0
 70
     1
  0
VERTEX
  5
185
  8
1
 10
1.1209999999999991
 20
1.421
 30
0.0
  0
VERTEX
  5
186
  8
1
 10
1.1209999999999991
 20
1.756
 30
0.0
  0
VERTEX
  5
187
  8
1
 10
1.125999999999999
 20
1.756
 30
0.0
  0
VERTEX
  5
188
  8
1
 10
1.125999999999999
 20
1.421
 30
0.0
  0
SEQEND
  5
189
  8
1
  0
POLYLINE
  5
18A
  8
1
 66
     1
 10
0.0
 20
0.0
 30
0.0
 70
     1
  0
VERTEX
  5
18B
  8
1
 10
1.135999999999999
 20
1.421
 30
0.0
  0
VERTEX
  5
18C
  8
1
 10
1.135999999999999
 20
1.756
 30
0.0
  0
VERTEX
  5
18D
  8
1
 10
1.141
 20
1.756
 30
0.0
  0
VERTEX
  5
18E
  8
1
 10
1.141
 20
1.421
 30
0.0
  0
SEQEND
  5
18F
  8
1
  0
POLYLINE
  5
190
  8
1
 66
     1
 10
0.0
 20
0.0
 30
0.0
 70
     1
  0
VERTEX
  5
191
  8
1
 10
1.151
 20
1.421
 30
0.0
  0
VERTEX
  5
192
  8
1
 10
1.151
 20
1.756
 30
0.0
  0
VERTEX
  5
193
  8
1
 10
1.155999999999999
 20
1.756
 30
0.0
  0
VERTEX
  5
194
  8
1
 10
1.155999999999999
 20
1.421
 30
0.0
  0
SEQEND
  5
195
  8
1
  0
POLYLINE
  5
196
  8
1
 66
     1
 10
0.0
 20
0.0
 30
0.0
 70
     1
  0
VERTEX
  5
197
  8
1
 10
1.165999999999999
 20
1.421
 30
0.0
  0
VERTEX
  5
198
  8
1
 10
1.165999999999999
 20
1.756
 30
0.0
  0
VERTEX
  5
199
  8
1
 10
1.171
 20
1.756
 30
0.0
  0
VERTEX
  5
19A
  8
1
 10
1.171
 20
1.421
 30
0.0
  0
SEQEND
  5
19B
  8
1
  0
POLYLINE
  5
19C
  8
1
 66
     1
 10
0.0
 20
0.0
 30
0.0
 70
     1
  0
VERTEX
  5
19D
  8
1
 10
1.181
 20
1.421
 30
0.0
  0
VERTEX
  5
19E
  8
1
 10
1.181
 20
1.756
 30
0.0
  0
VERTEX
  5
19F
  8
1
 10
1.1859999999999991
 20
1.756
 30
0.0
  0
VERTEX
  5
1A0
  8
1
 10
1.1859999999999991
 20
1.421
 30
0.0
  0
SEQEND
  5
1A1
  8
1
  0
POLYLINE
  5
1A2
  8
1
 66
     1
 10
0.0
 20
0.0
 30
0.0
 70
     1
  0
VERTEX
  5
1A3
  8
1
 10
1.1959999999999991
 20
1.421
 30
0.0
  0
VERTEX
  5
1A4
  8
1
 10
1.1959999999999991
 20
1.756
 30
0.0
  0
VERTEX
  5
1A5
  8
1
 10
1.2010000000000001
 20
1.756
 30
0.0
  0
VERTEX
  5
1A6
  8
1
 10
1.2010000000000001
 20
1.421
 30
0.0
  0
SEQEND
  5
1A7
  8
1
  0
POLYLINE
  5
1A8
  8
1
 66
     1
 10
0.0
 20
0.0
 30
0.0
 70
     1
  0
VERTEX
  5
1A9
  8
1
 10
0.4610000000000001
 20
1.381
 30
0.0
  0
VERTEX
  5
1AA
  8
1
 10
0.4610000000000001
 20
1.4330000000000001
 30
0.0
  0
VERTEX
  5
1AB
  8
1
 10
1.2010000000000001
 20
1.4330000000000001
 30
0.0
  0
VERTEX
  5
1AC
  8
1
 10
1.2010000000000001
 20
1.381
 30
0.0
  0
SEQEND
  5
1AD
  8
1
  0
POLYLINE
  5
1AE
  8
3
 66
     1
 10
0.0
 20
0.0
 30
0.0
 70
     1
  0
VERTEX
  5
1AF
  8
3
 10
1.548999999999999
 20
1.599
 30
0.0
  0
VERTEX
  5
1B0
  8
3
 10
1.548999999999999
 20
1.800999999999999
 30
0.0
  0
VERTEX
  5
1B1
  8
3
 10
1.750999999999999
 20
1.800999999999999
 30
0.0
  0
VERTEX
  5
1B2
  8
3
 10
1.750999999999999
 20
1.599
 30
0.0
  0
SEQEND
  5
1B3
  8
3
  0
POLYLINE
  5
1B4
  8
3
 66
     1
 10
0.0
 20
0.0
 30
0.0
 70
     1
  0
VERTEX
  5
1B5
  8
3
 10
1.548999999999999
 20
1.2439999999999991
 30
0.0
  0
VERTEX
  5
1B6
  8
3
 10
1.548999999999999
 20
1.4459999999999991
 30
0.0
  0
VERTEX
  5
1B7
  8
3
 10
1.750999999999999
 20
1.4459999999999991
 30
0.0
  0
VERTEX
  5
1B8
  8
3
 10
1.750999999999999
 20
1.2439999999999991
 30
0.0
  0
SEQEND
  5
1B9
  8
3
  0
POLYLINE
  5
1BA
  8
3
 66
     1
 10
0.0
 20
0.0
 30
0.0
 70
     1
  0
VERTEX
  5
1BB
  8
3
 10
0.4320000000000001
 20
1.7310000000000001
 30
0.0
  0
VERTEX
  5
1BC
  8
3
 10
0.4320000000000001
 20
1.7359999999999991
 30
0.0
  0
VERTEX
  5
1BD
  8
3
 10
1.2330000000000001
 20
1.7359999999999991
 30
0.0
  0
VERTEX
  5
1BE
  8
3
 10
1.2330000000000001
 20
1.7310000000000001
 30
0.0
  0
SEQEND
  5
1BF
  8
3
  0
POLYLINE
  5
1C0
  8
3
 66
     1
 10
0.0
 20
0.0
 30
0.0
 70
     1
  0
VERTEX
  5
1C1
  8
3
 10
0.4320000000000001
 20
1.716
 30
0.0
  0
VERTEX
  5
1C2
  8
3
 10
0.4320000000000001
 20
1.7210000000000001
 30
0.0
  0
VERTEX
  5
1C3
  8
3
 10
1.2330000000000001
 20
1.7210000000000001
 30
0.0
  0
VERTEX
  5
1C4
  8
3
 10
1.2330000000000001
 20
1.716
 30
0.0
  0
SEQEND
  5
1C5
  8
3
  0
POLYLINE
  5
1C6
  8
3
 66
     1
 10
0.0
 20
0.0
 30
0.0
 70
     1
  0
VERTEX
  5
1C7
  8
3
 10
0.4320000000000001
 20
1.7010000000000001
 30
0.0
  0
VERTEX
  5
1C8
  8
3
 10
0.4320000000000001
 20
1.7059999999999991
 30
0.0
  0
VERTEX
  5
1C9
  8
3
 10
1.2330000000000001
 20
1.7059999999999991
 30
0.0
  0
VERTEX
  5
1CA
  8
3
 10
1.2330000000000001
 20
1.7010000000000001
 30
0.0
  0
SEQEND
  5
1CB
  8
3
  0
POLYLINE
  5
1CC
  8
3
 66
     1
 10
0.0
 20
0.0
 30
0.0
 70
     1
  0
VERTEX
  5
1CD
  8
3
 10
0.4320000000000001
 20
1.6859999999999991
 30
0.0
  0
VERTEX
  5
1CE
  8
3
 10
0.4320000000000001
 20
1.6910000000000001
 30
0.0
  0
VERTEX
  5
1CF
  8
3
 10
1.2330000000000001
 20
1.6910000000000001
 30
0.0
  0
VERTEX
  5
1D0
  8
3
 10
1.2330000000000001
 20
1.6859999999999991
 30
0.0
  0
SEQEND
  5
1D1
  8
3
  0
POLYLINE
  5
1D2
  8
3
 66
     1
 10
0.0
 20
0.0
 30
0.0
 70
     1
  0
VERTEX
  5
1D3
  8
3
 10
0.4320000000000001
 20
1.671
 30
0.0
  0
VERTEX
  5
1D4
  8
3
 10
0.4320000000000001
 20
1.675999999999999
 30
0.0
  0
VERTEX
  5
1D5
  8
3
 10
1.2330000000000001
 20
1.675999999999999
 30
0.0
  0
VERTEX
  5
1D6
  8
3
 10
1.2330000000000001
 20
1.671
 30
0.0
  0
SEQEND
  5
1D7
  8
3
  0
POLYLINE
  5
1D8
  8
3
 66
     1
 10
0.0
 20
0.0
 30
0.0
 70
     1
  0
VERTEX
  5
1D9
  8
3
 10
0.4320000000000001
 20
1.655999999999999
 30
0.0
  0
VERTEX
  5
1DA
  8
3
 10
0.4320000000000001
 20
1.661
 30
0.0
  0
VERTEX
  5
1DB
  8
3
 10
1.2330000000000001
 20
1.661
 30
0.0
  0
VERTEX
  5
1DC
  8
3
 10
1.2330000000000001
 20
1.655999999999999
 30
0.0
  0
SEQEND
  5
1DD
  8
3
  0
POLYLINE
  5
1DE
  8
3
 66
     1
 10
0.0
 20
0.0
 30
0.0
 70
     1
  0
VERTEX
  5
1DF
  8
3
 10
0.4320000000000001
 20
1.641
 30
0.0
  0
VERTEX
  5
1E0
  8
3
 10
0.4320000000000001
 20
1.645999999999999
 30
0.0
  0
VERTEX
  5
1E1
  8
3
 10
1.2330000000000001
 20
1.645999999999999
 30
0.0
  0
VERTEX
  5
1E2
  8
3
 10
1.2330000000000001
 20
1.641
 30
0.0
  0
SEQEND
  5
1E3
  8
3
  0
POLYLINE
  5
1E4
  8
3
 66
     1
 10
0.0
 20
0.0
 30
0.0
 70
     1
  0
VERTEX
  5
1E5
  8
3
 10
0.4320000000000001
 20
1.625999999999999
 30
0.0
  0
VERTEX
  5
1E6
  8
3
 10
0.4320000000000001
 20
1.631
 30
0.0
  0
VERTEX
  5
1E7
  8
3
 10
1.2330000000000001
 20
1.631
 30
0.0
  0
VERTEX
  5
1E8
  8
3
 10
1.2330000000000001
 20
1.625999999999999
 30
0.0
  0
SEQEND
  5
1E9
  8
3
  0
POLYLINE
  5
1EA
  8
3
 66
     1
 10
0.0
 20
0.0
 30
0.0
 70
     1
  0
VERTEX
  5
1EB
  8
3
 10
0.4320000000000001
 20
1.6109999999999991
 30
0.0
  0
VERTEX
  5
1EC
  8
3
 10
0.4320000000000001
 20
1.6160000000000001
 30
0.0
  0
VERTEX
  5
1ED
  8
3
 10
1.2330000000000001
 20
1.6160000000000001
 30
0.0
  0
VERTEX
  5
1EE
  8
3
 10
1.2330000000000001
 20
1.6109999999999991
 30
0.0
  0
SEQEND
  5
1EF
  8
3
  0
POLYLINE
  5
1F0
  8
3
 66
     1
 10
0.0
 20
0.0
 30
0.0
 70
     1
  0
VERTEX
  5
1F1
  8
3
 10
0.4320000000000001
 20
1.5960000000000001
 30
0.0
  0
VERTEX
  5
1F2
  8
3
 10
0.4320000000000001
 20
1.6009999999999991
 30
0.0
  0
VERTEX
  5
1F3
  8
3
 10
1.2330000000000001
 20
1.6009999999999991
 30
0.0
  0
VERTEX
  5
1F4
  8
3
 10
1.2330000000000001
 20
1.5960000000000001
 30
0.0
  0
SEQEND
  5
1F5
  8
3
  0
POLYLINE
  5
1F6
  8
3
 66
     1
 10
0.0
 20
0.0
 30
0.0
 70
     1
  0
VERTEX
  5
1F7
  8
3
 10
0.4320000000000001
 20
1.5809999999999991
 30
0.0
  0
VERTEX
  5
1F8
  8
3
 10
0.4320000000000001
 20
1.5860000000000001
 30
0.0
  0
VERTEX
  5
1F9
  8
3
 10
1.2330000000000001
 20
1.5860000000000001
 30
0.0
  0
VERTEX
  5
1FA
  8
3
 10
1.2330000000000001
 20
1.5809999999999991
 30
0.0
  0
SEQEND
  5
1FB
  8
3
  0
POLYLINE
  5
1FC
  8
3
 66
     1
 10
0.0
 20
0.0
 30
0.0
 70
     1
  0
VERTEX
  5
1FD
  8
3
 10
0.4320000000000001
 20
1.5660000000000001
 30
0.0
  0
VERTEX
  5
1FE
  8
3
 10
0.4320000000000001
 20
1.5709999999999991
 30
0.0
  0
VERTEX
  5
1FF
  8
3
 10
1.2330000000000001
 20
1.5709999999999991
 30
0.0
  0
VERTEX
  5
200
  8
3
 10
1.2330000000000001
 20
1.5660000000000001
 30
0.0
  0
SEQEND
  5
201
  8
3
  0
POLYLINE
  5
202
  8
2
 66
     1
 10
0.0
 20
0.0
 30
0.0
 70
     1
  0
VERTEX
  5
203
  8
2
 10
0.119
 20
1.4990000000000001
 30
0.0
  0
VERTEX
  5
204
  8
2
 10
0.119
 20
1.530999999999999
 30
0.0
  0
VERTEX
  5
205
  8
2
 10
0.281
 20
1.530999999999999
 30
0.0
  0
VERTEX
  5
206
  8
2
 10
0.281
 20
1.4990000000000001
 30
0.0
  0
SEQEND
  5
207
  8
2
  0
POLYLINE
  5
208
  8
3
 66
     1
 10
0.0
 20
0.0
 30
0.0
 70
     1
  0
VERTEX
  5
209
  8
3
 10
0.149
 20
1.5889999999999991
 30
0.0
  0
VERTEX
  5
20A
  8
3
 10
0.149
 20
1.800999999999999
 30
0.0
  0
VERTEX
  5
20B
  8
3
 10
0.181
 20
1.800999999999999
 30
0.0
  0
VERTEX
  5
20C
  8
3
 10
0.181
 20
1.5889999999999991
 30
0.0
  0
SEQEND
  5
20D
  8
3
  0
POLYLINE
  5
20E
  8
3
 66
     1
 10
0.0
 20
0.0
 30
0.0
 70
     1
  0
VERTEX
  5
20F
  8
3
 10
0.219
 20
1.4690000000000001
 30
0.0
  0
VERTEX
  5
210
  8
3
 10
0.219
 20
1.681
 30
0.0
  0
VERTEX
  5
211
  8
3
 10
0.251
 20
1.681
 30
0.0
  0
VERTEX
  5
212
  8
3
 10
0.251
 20
1.4690000000000001
 30
0.0
  0
SEQEND
  5
213
  8
3
  0
POLYLINE
  5
214
  8
2
 66
     1
 10
0.0
 20
0.0
 30
0.0
 70
     1
  0
VERTEX
  5
215
  8
2
 10
0.119
 20
1.379
 30
0.0
  0
VERTEX
  5
216
  8
2
 10
0.119
 20
1.411
 30
0.0
  0
VERTEX
  5
217
  8
2
 10
0.281
 20
1.411
 30
0.0
  0
VERTEX
  5
218
  8
2
 10
0.281
 20
1.379
 30
0.0
  0
SEQEND
  5
219
  8
2
  0
POLYLINE
  5
21A
  8
2
 66
     1
 10
0.0
 20
0.0
 30
0.0
 70
     1
  0
VERTEX
  5
21B
  8
2
 10
0.119
 20
1.258999999999999
 30
0.0
  0
VERTEX
  5
21C
  8
2
 10
0.119
 20
1.290999999999999
 30
0.0
  0
VERTEX
  5
21D
  8
2
 10
0.281
 20
1.290999999999999
 30
0.0
  0
VERTEX
  5
21E
  8
2
 10
0.281
 20
1.258999999999999
 30
0.0
  0
SEQEND
  5
21F
  8
2
  0
POLYLINE
  5
220
  8
3
 66
     1
 10
0.0
 20
0.0
 30
0.0
 70
     1
  0
VERTEX
  5
221
  8
3
 10
0.149
 20
1.3489999999999991
 30
0.0
  0
VERTEX
  5
222
  8
3
 10
0.149
 20
1.5609999999999991
 30
0.0
  0
VERTEX
  5
223
  8
3
 10
0.181
 20
1.5609999999999991
 30
0.0
  0
VERTEX
  5
224
  8
3
 10
0.181
 20
1.3489999999999991
 30
0.0
  0
SEQEND
  5
225
  8
3
  0
POLYLINE
  5
226
  8
3
 66
     1
 10
0.0
 20
0.0
 30
0.0
 70
     1
  0
VERTEX
  5
227
  8
3
 10
0.219
 20
1.2290000000000001
 30
0.0
  0
VERTEX
  5
228
  8
3
 10
0.219
 20
1.4410000000000001
 30
0.0
  0
VERTEX
  5
229
  8
3
 10
0.251
 20
1.4410000000000001
 30
0.0
  0
VERTEX
  5
22A
  8
3
 10
0.251
 20
1.2290000000000001
 30
0.0
  0
SEQEND
  5
22B
  8
3
  0
POLYLINE
  5
22C
  8
2
 66
     1
 10
0.0
 20
0.0
 30
0.0
 70
     1
  0
VERTEX
  5
22D
  8
2
 10
0.119
 20
1.139
 30
0.0
  0
VERTEX
  5
22E
  8
2
 10
0.119
 20
1.171
 30
0.0
  0
VERTEX
  5
22F
  8
2
 10
0.281
 20
1.171
 30
0.0
  0
VERTEX
  5
230
  8
2
 10
0.281
 20
1.139
 30
0.0
  0
SEQEND
  5
231
  8
2
  0
POLYLINE
  5
232
  8
2
 66
     1
 10
0.0
 20
0.0
 30
0.0
 70
     1
  0
VERTEX
  5
233
  8
2
 10
0.119
 20
1.018999999999999
 30
0.0
  0
VERTEX
  5
234
  8
2
 10
0.119
 20
1.050999999999999
 30
0.0
  0
VERTEX
  5
235
  8
2
 10
0.281
 20
1.050999999999999
 30
0.0
  0
VERTEX
  5
236
  8
2
 10
0.281
 20
1.018999999999999
 30
0.0
  0
SEQEND
  5
237
  8
2
  0
POLYLINE
  5
238
  8
3
 66
     1
 10
0.0
 20
0.0
 30
0.0
 70
     1
  0
VERTEX
  5
239
  8
3
 10
0.149
 20
1.1089999999999991
 30
0.0
  0
VERTEX
  5
23A
  8
3
 10
0.149
 20
1.3209999999999991
 30
0.0
  0
VERTEX
  5
23B
  8
3
 10
0.181
 20
1.3209999999999991
 30
0.0
  0
VERTEX
  5
23C
  8
3
 10
0.181
 20
1.1089999999999991
 30
0.0
  0
SEQEND
  5
23D
  8
3
  0
POLYLINE
  5
23E
  8
3
 66
     1
 10
0.0
 20
0.0
 30
0.0
 70
     1
  0
VERTEX
  5
23F
  8
3
 10
0.219
 20
0.989
 30
0.0
  0
VERTEX
  5
240
  8
3
 10
0.219
 20
1.2010000000000001
 30
0.0
  0
VERTEX
  5
241
  8
3
 10
0.251
 20
1.2010000000000001
 30
0.0
  0
VERTEX
  5
242
  8
3
 10
0.251
 20
0.989
 30
0.0
  0
SEQEND
  5
243
  8
3
  0
POLYLINE
  5
244
  8
3
 66
     1
 10
0.0
 20
0.0
 30
0.0
 70
     1
  0
VERTEX
  5
245
  8
3
 10
0.149
 20
0.9190000000000002
 30
0.0
  0
VERTEX
  5
246
  8
3
 10
0.149
 20
1.0809999999999991
 30
0.0
  0
VERTEX
  5
247
  8
3
 10
0.181
 20
1.0809999999999991
 30
0.0
  0
VERTEX
  5
248
  8
3
 10
0.181
 20
0.9190000000000002
 30
0.0
  0
SEQEND
  5
249
  8
3
  0
POLYLINE
  5
24A
  8
3
 66
     1
 10
0.0
 20
0.0
 30
0.0
 70
     1
  0
VERTEX
  5
24B
  8
3
 10
0.099
 20
0.7490000000000001
 30
0.0
  0
VERTEX
  5
24C
  8
3
 10
0.099
 20
0.9509999999999999
 30
0.0
  0
VERTEX
  5
24D
  8
3
 10
0.301
 20
0.9509999999999999
 30
0.0
  0
VERTEX
  5
24E
  8
3
 10
0.301
 20
0.7490000000000001
 30
0.0
  0
SEQEND
  5
24F
  8
3
  0
POLYLINE
  5
250
  8
3
 66
     1
 10
0.0
 20
0.0
 30
0.0
 70
     1
  0
VERTEX
  5
251
  8
3
 10
0.099
 20
0.4490000000000001
 30
0.0
  0
VERTEX
  5
252
  8
3
 10
0.099
 20
0.651
 30
0.0
  0
VERTEX
  5
253
  8
3
 10
0.301
 20
0.651
 30
0.0
  0
VERTEX
  5
254
  8
3
 10
0.301
 20
0.4490000000000001
 30
0.0
  0
SEQEND
  5
255
  8
3
  0
POLYLINE
  5
256
  8
3
 66
     1
 10
0.0
 20
0.0
 30
0.0
 70
     1
  0
VERTEX
  5
257
  8
3
 10
1.298999999999999
 20
1.7490000000000001
 30
0.0
  0
VERTEX
  5
258
  8
3
 10
1.298999999999999
 20
1.9510000000000001
 30
0.0
  0
VERTEX
  5
259
  8
3
 10
1.500999999999999
 20
1.9510000000000001
 30
0.0
  0
VERTEX
  5
25A
  8
3
 10
1.500999999999999
 20
1.7490000000000001
 30
0.0
  0
SEQEND
  5
25B
  8
3
  0
POLYLINE
  5
25C
  8
1
 66
     1
 10
0.0
 20
0.0
 30
0.0
 70
     1
  0
VERTEX
  5
25D
  8
1
 10
1.294
 20
1.681
 30
0.0
  0
VERTEX
  5
25E
  8
1
 10
1.294
 20
1.6859999999999991
 30
0.0
  0
VERTEX
  5
25F
  8
1
 10
1.381
 20
1.6859999999999991
 30
0.0
  0
VERTEX
  5
260
  8
1
 10
1.381
 20
1.681
 30
0.0
  0
SEQEND
  5
261
  8
1
  0
POLYLINE
  5
262
  8
1
 66
     1
 10
0.0
 20
0.0
 30
0.0
 70
     1
  0
VERTEX
  5
263
  8
1
 10
1.423999999999999
 20
1.425999999999999
 30
0.0
  0
VERTEX
  5
264
  8
1
 10
1.423999999999999
 20
1.7010000000000001
 30
0.0
  0
VERTEX
  5
265
  8
1
 10
1.429
 20
1.7010000000000001
 30
0.0
  0
VERTEX
  5
266
  8
1
 10
1.429
 20
1.425999999999999
 30
0.0
  0
SEQEND
  5
267
  8
1
  0
POLYLINE
  5
268
  8
1
 66
     1
 10
0.0
 20
0.0
 30
0.0
 70
     1
  0
VERTEX
  5
269
  8
1
 10
1.294
 20
1.661
 30
0.0
  0
VERTEX
  5
26A
  8
1
 10
1.294
 20
1.665999999999999
 30
0.0
  0
VERTEX
  5
26B
  8
1
 10
1.381
 20
1.665999999999999
 30
0.0
  0
VERTEX
  5
26C
  8
1
 10
1.381
 20
1.661
 30
0.0
  0
SEQEND
  5
26D
  8
1
  0
POLYLINE
  5
26E
  8
1
 66
     1
 10
0.0
 20
0.0
 30
0.0
 70
     1
  0
VERTEX
  5
26F
  8
1
 10
1.294
 20
1.641
 30
0.0
  0
VERTEX
  5
270
  8
1
 10
1.294
 20
1.645999999999999
 30
0.0
  0
VERTEX
  5
271
  8
1
 10
1.381
 20
1.645999999999999
 30
0.0
  0
VERTEX
  5
272
  8
1
 10
1.381
 20
1.641
 30
0.0
  0
SEQEND
  5
273
  8
1
  0
POLYLINE
  5
274
  8
1
 66
     1
 10
0.0
 20
0.0
 30
0.0
 70
     1
  0
VERTEX
  5
275
  8
1
 10
1.294
 20
1.6209999999999991
 30
0.0
  0
VERTEX
  5
276
  8
1
 10
1.294
 20
1.625999999999999
 30
0.0
  0
VERTEX
  5
277
  8
1
 10
1.381
 20
1.625999999999999
 30
0.0
  0
VERTEX
  5
278
  8
1
 10
1.381
 20
1.6209999999999991
 30
0.0
  0
SEQEND
  5
279
  8
1
  0
POLYLINE
  5
27A
  8
1
 66
     1
 10
0.0
 20
0.0
 30
0.0
 70
     1
  0
VERTEX
  5
27B
  8
1
 10
1.294
 20
1.6009999999999991
 30
0.0
  0
VERTEX
  5
27C
  8
1
 10
1.294
 20
1.6060000000000001
 30
0.0
  0
VERTEX
  5
27D
  8
1
 10
1.381
 20
1.6060000000000001
 30
0.0
  0
VERTEX
  5
27E
  8
1
 10
1.381
 20
1.6009999999999991
 30
0.0
  0
SEQEND
  5
27F
  8
1
  0
POLYLINE
  5
280
  8
1
 66
     1
 10
0.0
 20
0.0
 30
0.0
 70
     1
  0
VERTEX
  5
281
  8
1
 10
1.294
 20
1.5809999999999991
 30
0.0
  0
VERTEX
  5
282
  8
1
 10
1.294
 20
1.5860000000000001
 30
0.0
  0
VERTEX
  5
283
  8
1
 10
1.381
 20
1.5860000000000001
 30
0.0
  0
VERTEX
  5
284
  8
1
 10
1.381
 20
1.5809999999999991
 30
0.0
  0
SEQEND
  5
285
  8
1
  0
POLYLINE
  5
286
  8
1
 66
     1
 10
0.0
 20
0.0
 30
0.0
 70
     1
  0
VERTEX
  5
287
  8
1
 10
1.294
 20
1.5609999999999991
 30
0.0
  0
VERTEX
  5
288
  8
1
 10
1.294
 20
1.5660000000000001
 30
0.0
  0
VERTEX
  5
289
  8
1
 10
1.381
 20
1.5660000000000001
 30
0.0
  0
VERTEX
  5
28A
  8
1
 10
1.381
 20
1.5609999999999991
 30
0.0
  0
SEQEND
  5
28B
  8
1
  0
POLYLINE
  5
28C
  8
1
 66
     1
 10
0.0
 20
0.0
 30
0.0
 70
     1
  0
VERTEX
  5
28D
  8
1
 10
1.294
 20
1.540999999999999
 30
0.0
  0
VERTEX
  5
28E
  8
1
 10
1.294
 20
1.546
 30
0.0
  0
VERTEX
  5
28F
  8
1
 10
1.381
 20
1.546
 30
0.0
  0
VERTEX
  5
290
  8
1
 10
1.381
 20
1.540999999999999
 30
0.0
  0
SEQEND
  5
291
  8
1
  0
POLYLINE
  5
292
  8
1
 66
     1
 10
0.0
 20
0.0
 30
0.0
 70
     1
  0
VERTEX
  5
293
  8
1
 10
1.294
 20
1.520999999999999
 30
0.0
  0
VERTEX
  5
294
  8
1
 10
1.294
 20
1.5259999999999989
 30
0.0
  0
VERTEX
  5
295
  8
1
 10
1.381
 20
1.5259999999999989
 30
0.0
  0
VERTEX
  5
296
  8
1
 10
1.381
 20
1.520999999999999
 30
0.0
  0
SEQEND
  5
297
  8
1
  0
POLYLINE
  5
298
  8
1
 66
     1
 10
0.0
 20
0.0
 30
0.0
 70
     1
  0
VERTEX
  5
299
  8
1
 10
1.548999999999999
 20
0.899
 30
0.0
  0
VERTEX
  5
29A
  8
1
 10
1.548999999999999
 20
1.1009999999999991
 30
0.0
  0
VERTEX
  5
29B
  8
1
 10
1.750999999999999
 20
1.1009999999999991
 30
0.0
  0
VERTEX
  5
29C
  8
1
 10
1.750999999999999
 20
0.899
 30
0.0
  0
SEQEND
  5
29D
  8
1
  0
POLYLINE
  5
29E
  8
1
 66
     1
 10
0.0
 20
0.0
 30
0.0
 70
     1
  0
VERTEX
  5
29F
  8
1
 10
0.099
 20
0.099
 30
0.0
  0
VERTEX
  5
2A0
  8
1
 10
0.099
 20
0.301
 30
0.0
  0
VERTEX
  5
2A1
  8
1
 10
0.301
 20
0.301
 30
0.0
  0
VERTEX
  5
2A2
  8
1
 10
0.301
 20
0.099
 30
0.0
  0
SEQEND
  5
2A3
  8
1
  0
POLYLINE
  5
2A4
  8
1
 66
     1
 10
0.0
 20
0.0
 30
0.0
 70
     1
  0
VERTEX
  5
2A5
  8
1
 10
1.548999999999999
 20
0.099
 30
0.0
  0
VERTEX
  5
2A6
  8
1
 10
1.548999999999999
 20
0.301
 30
0.0
  0
VERTEX
  5
2A7
  8
1
 10
1.750999999999999
 20
0.301
 30
0.0
  0
VERTEX
  5
2A8
  8
1
 10
1.750999999999999
 20
0.099
 30
0.0
  0
SEQEND
  5
2A9
  8
1
  0
POLYLINE
  5
2AA
  8
2
 66
     1
 10
0.0
 20
0.0
 30
0.0
 70
     1
  0
VERTEX
  5
2AB
  8
2
 10
0.7990000000000002
 20
0.099
 30
0.0
  0
VERTEX
  5
2AC
  8
2
 10
0.7990000000000002
 20
0.301
 30
0.0
  0
VERTEX
  5
2AD
  8
2
 10
1.000999999999999
 20
0.301
 30
0.0
  0
VERTEX
  5
2AE
  8
2
 10
1.000999999999999
 20
0.099
 30
0.0
  0
SEQEND
  5
2AF
  8
2
  0
POLYLINE
  5
2B0
  8
2
 66
     1
 10
0.0
 20
0.0
 30
0.0
 70
     1
  0
VERTEX
  5
2B1
  8
2
 10
1.1990000000000001
 20
0.099
 30
0.0
  0
VERTEX
  5
2B2
  8
2
 10
1.1990000000000001
 20
0.301
 30
0.0
  0
VERTEX
  5
2B3
  8
2
 10
1.4009999999999989
 20
0.301
 30
0.0
  0
VERTEX
  5
2B4
  8
2
 10
1.4009999999999989
 20
0.099
 30
0.0
  0
SEQEND
  5
2B5
  8
2
  0
POLYLINE
  5
2B6
  8
1
 66
     1
 10
0.0
 20
0.0
 30
0.0
 70
     1
  0
VERTEX
  5
2B7
  8
1
 10
0.6790000000000001
 20
0.379
 30
0.0
  0
VERTEX
  5
2B8
  8
1
 10
0.6790000000000001
 20
0.413
 30
0.0
  0
VERTEX
  5
2B9
  8
1
 10
0.6870000000000001
 20
0.413
 30
0.0
  0
VERTEX
  5
2BA
  8
1
 10
0.6870000000000001
 20
0.379
 30
0.0
  0
SEQEND
  5
2BB
  8
1
  0
POLYLINE
  5
2BC
  8
1
 66
     1
 10
0.0
 20
0.0
 30
0.0
 70
     1
  0
VERTEX
  5
2BD
  8
1
 10
0.6790000000000001
 20
0.411
 30
0.0
  0
VERTEX
  5
2BE
  8
1
 10
0.6790000000000001
 20
0.4450000000000001
 30
0.0
  0
VERTEX
  5
2BF
  8
1
 10
0.6870000000000001
 20
0.4450000000000001
 30
0.0
  0
VERTEX
  5
2C0
  8
1
 10
0.6870000000000001
 20
0.411
 30
0.0
  0
SEQEND
  5
2C1
  8
1
  0
POLYLINE
  5
2C2
  8
1
 66
     1
 10
0.0
 20
0.0
 30
0.0
 70
     1
  0
VERTEX
  5
2C3
  8
1
 10
0.6790000000000001
 20
0.435
 30
0.0
  0
VERTEX
  5
2C4
  8
1
 10
0.6790000000000001
 20
0.4450000000000001
 30
0.0
  0
VERTEX
  5
2C5
  8
1
 10
0.705
 20
0.4450000000000001
 30
0.0
  0
VERTEX
  5
2C6
  8
1
 10
0.705
 20
0.435
 30
0.0
  0
SEQEND
  5
2C7
  8
1
  0
POLYLINE
  5
2C8
  8
1
 66
     1
 10
0.0
 20
0.0
 30
0.0
 70
     1
  0
VERTEX
  5
2C9
  8
1
 10
0.703
 20
0.435
 30
0.0
  0
VERTEX
  5
2CA
  8
1
 10
0.703
 20
0.4450000000000001
 30
0.0
  0
VERTEX
  5
2CB
  8
1
 10
0.729
 20
0.4450000000000001
 30
0.0
  0
VERTEX
  5
2CC
  8
1
 10
0.729
 20
0.435
 30
0.0
  0
SEQEND
  5
2CD
  8
1
  0
POLYLINE
  5
2CE
  8
1
 66
     1
 10
0.0
 20
0.0
 30
0.0
 70
     1
  0
VERTEX
  5
2CF
  8
1
 10
0.721
 20
0.411
 30
0.0
  0
VERTEX
  5
2D0
  8
1
 10
0.721
 20
0.4450000000000001
 30
0.0
  0
VERTEX
  5
2D1
  8
1
 10
0.729
 20
0.4450000000000001
 30
0.0
  0
VERTEX
  5
2D2
  8
1
 10
0.729
 20
0.411
 30
0.0
  0
SEQEND
  5
2D3
  8
1
  0
POLYLINE
  5
2D4
  8
1
 66
     1
 10
0.0
 20
0.0
 30
0.0
 70
     1
  0
VERTEX
  5
2D5
  8
1
 10
0.6790000000000001
 20
0.407
 30
0.0
  0
VERTEX
  5
2D6
  8
1
 10
0.6790000000000001
 20
0.417
 30
0.0
  0
VERTEX
  5
2D7
  8
1
 10
0.708
 20
0.417
 30
0.0
  0
VERTEX
  5
2D8
  8
1
 10
0.708
 20
0.407
 30
0.0
  0
SEQEND
  5
2D9
  8
1
  0
POLYLINE
  5
2DA
  8
1
 66
     1
 10
0.0
 20
0.0
 30
0.0
 70
     1
  0
VERTEX
  5
2DB
  8
1
 10
0.7
 20
0.407
 30
0.0
  0
VERTEX
  5
2DC
  8
1
 10
0.7
 20
0.417
 30
0.0
  0
VERTEX
  5
2DD
  8
1
 10
0.729
 20
0.417
 30
0.0
  0
VERTEX
  5
2DE
  8
1
 10
0.729
 20
0.407
 30
0.0
  0
SEQEND
  5
2DF
  8
1
  0
POLYLINE
  5
2E0
  8
1
 66
     1
 10
0.0
 20
0.0
 30
0.0
 70
     1
  0
VERTEX
  5
2E1
  8
1
 10
0.699
 20
0.412
 30
0.0
  0
VERTEX
  5
2E2
  8
1
 10
0.704
 20
0.4160000000000001
 30
0.0
  0
VERTEX
  5
2E3
  8
1
 10
0.728
 20
0.383
 30
0.0
  0
VERTEX
  5
2E4
  8
1
 10
0.723
 20
0.38
 30
0.0
  0
SEQEND
  5
2E5
  8
1
  0
POLYLINE
  5
2E6
  8
1
 66
     1
 10
0.0
 20
0.0
 30
0.0
 70
     1
  0
VERTEX
  5
2E7
  8
1
 10
0.751
 20
0.435
 30
0.0
  0
VERTEX
  5
2E8
  8
1
 10
0.751
 20
0.4450000000000001
 30
0.0
  0
VERTEX
  5
2E9
  8
1
 10
0.7770000000000001
 20
0.4450000000000001
 30
0.0
  0
VERTEX
  5
2EA
  8
1
 10
0.7770000000000001
 20
0.435
 30
0.0
  0
SEQEND
  5
2EB
  8
1
  0
POLYLINE
  5
2EC
  8
1
 66
     1
 10
0.0
 20
0.0
 30
0.0
 70
     1
  0
VERTEX
  5
2ED
  8
1
 10
0.775
 20
0.435
 30
0.0
  0
VERTEX
  5
2EE
  8
1
 10
0.775
 20
0.4450000000000001
 30
0.0
  0
VERTEX
  5
2EF
  8
1
 10
0.8009999999999999
 20
0.4450000000000001
 30
0.0
  0
VERTEX
  5
2F0
  8
1
 10
0.8009999999999999
 20
0.435
 30
0.0
  0
SEQEND
  5
2F1
  8
1
  0
POLYLINE
  5
2F2
  8
1
 66
     1
 10
0.0
 20
0.0
 30
0.0
 70
     1
  0
VERTEX
  5
2F3
  8
1
 10
0.7720000000000001
 20
0.407
 30
0.0
  0
VERTEX
  5
2F4
  8
1
 10
0.7720000000000001
 20
0.4450000000000001
 30
0.0
  0
VERTEX
  5
2F5
  8
1
 10
0.7800000000000001
 20
0.4450000000000001
 30
0.0
  0
VERTEX
  5
2F6
  8
1
 10
0.7800000000000001
 20
0.407
 30
0.0
  0
SEQEND
  5
2F7
  8
1
  0
POLYLINE
  5
2F8
  8
1
 66
     1
 10
0.0
 20
0.0
 30
0.0
 70
     1
  0
VERTEX
  5
2F9
  8
1
 10
0.7720000000000001
 20
0.379
 30
0.0
  0
VERTEX
  5
2FA
  8
1
 10
0.7720000000000001
 20
0.417
 30
0.0
  0
VERTEX
  5
2FB
  8
1
 10
0.7800000000000001
 20
0.417
 30
0.0
  0
VERTEX
  5
2FC
  8
1
 10
0.7800000000000001
 20
0.379
 30
0.0
  0
SEQEND
  5
2FD
  8
1
  0
POLYLINE
  5
2FE
  8
1
 66
     1
 10
0.0
 20
0.0
 30
0.0
 70
     1
  0
VERTEX
  5
2FF
  8
1
 10
0.823
 20
0.407
 30
0.0
  0
VERTEX
  5
300
  8
1
 10
0.823
 20
0.417
 30
0.0
  0
VERTEX
  5
301
  8
1
 10
0.8519999999999999
 20
0.417
 30
0.0
  0
VERTEX
  5
302
  8
1
 10
0.8519999999999999
 20
0.407
 30
0.0
  0
SEQEND
  5
303
  8
1
  0
POLYLINE
  5
304
  8
1
 66
     1
 10
0.0
 20
0.0
 30
0.0
 70
     1
  0
VERTEX
  5
305
  8
1
 10
0.8439999999999999
 20
0.407
 30
0.0
  0
VERTEX
  5
306
  8
1
 10
0.8439999999999999
 20
0.417
 30
0.0
  0
VERTEX
  5
307
  8
1
 10
0.873
 20
0.417
 30
0.0
  0
VERTEX
  5
308
  8
1
 10
0.873
 20
0.407
 30
0.0
  0
SEQEND
  5
309
  8
1
  0
POLYLINE
  5
30A
  8
1
 66
     1
 10
0.0
 20
0.0
 30
0.0
 70
     1
  0
VERTEX
  5
30B
  8
1
 10
0.9370000000000001
 20
0.411
 30
0.0
  0
VERTEX
  5
30C
  8
1
 10
0.9370000000000001
 20
0.4450000000000001
 30
0.0
  0
VERTEX
  5
30D
  8
1
 10
0.945
 20
0.4450000000000001
 30
0.0
  0
VERTEX
  5
30E
  8
1
 10
0.945
 20
0.411
 30
0.0
  0
SEQEND
  5
30F
  8
1
  0
POLYLINE
  5
310
  8
1
 66
     1
 10
0.0
 20
0.0
 30
0.0
 70
     1
  0
VERTEX
  5
311
  8
1
 10
0.9370000000000001
 20
0.379
 30
0.0
  0
VERTEX
  5
312
  8
1
 10
0.9370000000000001
 20
0.413
 30
0.0
  0
VERTEX
  5
313
  8
1
 10
0.945
 20
0.413
 30
0.0
  0
VERTEX
  5
314
  8
1
 10
0.945
 20
0.379
 30
0.0
  0
SEQEND
  5
315
  8
1
  0
POLYLINE
  5
316
  8
1
 66
     1
 10
0.0
 20
0.0
 30
0.0
 70
     1
  0
VERTEX
  5
317
  8
1
 10
0.9200000000000002
 20
0.407
 30
0.0
  0
VERTEX
  5
318
  8
1
 10
0.915
 20
0.411
 30
0.0
  0
VERTEX
  5
319
  8
1
 10
0.9389999999999998
 20
0.4440000000000001
 30
0.0
  0
VERTEX
  5
31A
  8
1
 10
0.944
 20
0.4400000000000001
 30
0.0
  0
SEQEND
  5
31B
  8
1
  0
POLYLINE
  5
31C
  8
1
 66
     1
 10
0.0
 20
0.0
 30
0.0
 70
     1
  0
VERTEX
  5
31D
  8
1
 10
0.9669999999999999
 20
0.411
 30
0.0
  0
VERTEX
  5
31E
  8
1
 10
0.9669999999999999
 20
0.4450000000000001
 30
0.0
  0
VERTEX
  5
31F
  8
1
 10
0.975
 20
0.4450000000000001
 30
0.0
  0
VERTEX
  5
320
  8
1
 10
0.975
 20
0.411
 30
0.0
  0
SEQEND
  5
321
  8
1
  0
POLYLINE
  5
322
  8
1
 66
     1
 10
0.0
 20
0.0
 30
0.0
 70
     1
  0
VERTEX
  5
323
  8
1
 10
1.008999999999999
 20
0.411
 30
0.0
  0
VERTEX
  5
324
  8
1
 10
1.008999999999999
 20
0.4450000000000001
 30
0.0
  0
VERTEX
  5
325
  8
1
 10
1.016999999999999
 20
0.4450000000000001
 30
0.0
  0
VERTEX
  5
326
  8
1
 10
1.016999999999999
 20
0.411
 30
0.0
  0
SEQEND
  5
327
  8
1
  0
POLYLINE
  5
328
  8
1
 66
     1
 10
0.0
 20
0.0
 30
0.0
 70
     1
  0
VERTEX
  5
329
  8
1
 10
1.008999999999999
 20
0.379
 30
0.0
  0
VERTEX
  5
32A
  8
1
 10
1.008999999999999
 20
0.413
 30
0.0
  0
VERTEX
  5
32B
  8
1
 10
1.016999999999999
 20
0.413
 30
0.0
  0
VERTEX
  5
32C
  8
1
 10
1.016999999999999
 20
0.379
 30
0.0
  0
SEQEND
  5
32D
  8
1
  0
POLYLINE
  5
32E
  8
1
 66
     1
 10
0.0
 20
0.0
 30
0.0
 70
     1
  0
VERTEX
  5
32F
  8
1
 10
0.9669999999999999
 20
0.407
 30
0.0
  0
VERTEX
  5
330
  8
1
 10
0.9669999999999999
 20
0.417
 30
0.0
  0
VERTEX
  5
331
  8
1
 10
0.996
 20
0.417
 30
0.0
  0
VERTEX
  5
332
  8
1
 10
0.996
 20
0.407
 30
0.0
  0
SEQEND
  5
333
  8
1
  0
POLYLINE
  5
334
  8
1
 66
     1
 10
0.0
 20
0.0
 30
0.0
 70
     1
  0
VERTEX
  5
335
  8
1
 10
0.9879999999999999
 20
0.407
 30
0.0
  0
VERTEX
  5
336
  8
1
 10
0.9879999999999999
 20
0.417
 30
0.0
  0
VERTEX
  5
337
  8
1
 10
1.016999999999999
 20
0.417
 30
0.0
  0
VERTEX
  5
338
  8
1
 10
1.016999999999999
 20
0.407
 30
0.0
  0
SEQEND
  5
339
  8
1
  0
POLYLINE
  5
33A
  8
1
 66
     1
 10
0.0
 20
0.0
 30
0.0
 70
     1
  0
VERTEX
  5
33B
  8
1
 10
1.038999999999999
 20
0.379
 30
0.0
  0
VERTEX
  5
33C
  8
1
 10
1.038999999999999
 20
0.413
 30
0.0
  0
VERTEX
  5
33D
  8
1
 10
1.046999999999999
 20
0.413
 30
0.0
  0
VERTEX
  5
33E
  8
1
 10
1.046999999999999
 20
0.379
 30
0.0
  0
SEQEND
  5
33F
  8
1
  0
POLYLINE
  5
340
  8
1
 66
     1
 10
0.0
 20
0.0
 30
0.0
 70
     1
  0
VERTEX
  5
341
  8
1
 10
1.038999999999999
 20
0.411
 30
0.0
  0
VERTEX
  5
342
  8
1
 10
1.038999999999999
 20
0.4450000000000001
 30
0.0
  0
VERTEX
  5
343
  8
1
 10
1.046999999999999
 20
0.4450000000000001
 30
0.0
  0
VERTEX
  5
344
  8
1
 10
1.046999999999999
 20
0.411
 30
0.0
  0
SEQEND
  5
345
  8
1
  0
POLYLINE
  5
346
  8
1
 66
     1
 10
0.0
 20
0.0
 30
0.0
 70
     1
  0
VERTEX
  5
347
  8
1
 10
1.038999999999999
 20
0.435
 30
0.0
  0
VERTEX
  5
348
  8
1
 10
1.038999999999999
 20
0.4450000000000001
 30
0.0
  0
VERTEX
  5
349
  8
1
 10
1.0649999999999991
 20
0.4450000000000001
 30
0.0
  0
VERTEX
  5
34A
  8
1
 10
1.0649999999999991
 20
0.435
 30
0.0
  0
SEQEND
  5
34B
  8
1
  0
POLYLINE
  5
34C
  8
1
 66
     1
 10
0.0
 20
0.0
 30
0.0
 70
     1
  0
VERTEX
  5
34D
  8
1
 10
1.0629999999999991
 20
0.435
 30
0.0
  0
VERTEX
  5
34E
  8
1
 10
1.0629999999999991
 20
0.4450000000000001
 30
0.0
  0
VERTEX
  5
34F
  8
1
 10
1.0889999999999991
 20
0.4450000000000001
 30
0.0
  0
VERTEX
  5
350
  8
1
 10
1.0889999999999991
 20
0.435
 30
0.0
  0
SEQEND
  5
351
  8
1
  0
POLYLINE
  5
352
  8
1
 66
     1
 10
0.0
 20
0.0
 30
0.0
 70
     1
  0
VERTEX
  5
353
  8
1
 10
1.0809999999999991
 20
0.411
 30
0.0
  0
VERTEX
  5
354
  8
1
 10
1.0809999999999991
 20
0.4450000000000001
 30
0.0
  0
VERTEX
  5
355
  8
1
 10
1.0889999999999991
 20
0.4450000000000001
 30
0.0
  0
VERTEX
  5
356
  8
1
 10
1.0889999999999991
 20
0.411
 30
0.0
  0
SEQEND
  5
357
  8
1
  0
POLYLINE
  5
358
  8
1
 66
     1
 10
0.0
 20
0.0
 30
0.0
 70
     1
  0
VERTEX
  5
359
  8
1
 10
1.0809999999999991
 20
0.379
 30
0.0
  0
VERTEX
  5
35A
  8
1
 10
1.0809999999999991
 20
0.413
 30
0.0
  0
VERTEX
  5
35B
  8
1
 10
1.0889999999999991
 20
0.413
 30
0.0
  0
VERTEX
  5
35C
  8
1
 10
1.0889999999999991
 20
0.379
 30
0.0
  0
SEQEND
  5
35D
  8
1
  0
POLYLINE
  5
35E
  8
1
 66
     1
 10
0.0
 20
0.0
 30
0.0
 70
     1
  0
VERTEX
  5
35F
  8
1
 10
1.0629999999999991
 20
0.379
 30
0.0
  0
VERTEX
  5
360
  8
1
 10
1.0629999999999991
 20
0.389
 30
0.0
  0
VERTEX
  5
361
  8
1
 10
1.0889999999999991
 20
0.389
 30
0.0
  0
VERTEX
  5
362
  8
1
 10
1.0889999999999991
 20
0.379
 30
0.0
  0
SEQEND
  5
363
  8
1
  0
POLYLINE
  5
364
  8
1
 66
     1
 10
0.0
 20
0.0
 30
0.0
 70
     1
  0
VERTEX
  5
365
  8
1
 10
1.038999999999999
 20
0.379
 30
0.0
  0
VERTEX
  5
366
  8
1
 10
1.038999999999999
 20
0.389
 30
0.0
  0
VERTEX
  5
367
  8
1
 10
1.0649999999999991
 20
0.389
 30
0.0
  0
VERTEX
  5
368
  8
1
 10
1.0649999999999991
 20
0.379
 30
0.0
  0
SEQEND
  5
369
  8
1
  0
POLYLINE
  5
36A
  8
1
 66
     1
 10
0.0
 20
0.0
 30
0.0
 70
     1
  0
VERTEX
  5
36B
  8
1
 10
1.1109999999999991
 20
0.379
 30
0.0
  0
VERTEX
  5
36C
  8
1
 10
1.1109999999999991
 20
0.413
 30
0.0
  0
VERTEX
  5
36D
  8
1
 10
1.1189999999999991
 20
0.413
 30
0.0
  0
VERTEX
  5
36E
  8
1
 10
1.1189999999999991
 20
0.379
 30
0.0
  0
SEQEND
  5
36F
  8
1
  0
POLYLINE
  5
370
  8
1
 66
     1
 10
0.0
 20
0.0
 30
0.0
 70
     1
  0
VERTEX
  5
371
  8
1
 10
1.1109999999999991
 20
0.411
 30
0.0
  0
VERTEX
  5
372
  8
1
 10
1.1109999999999991
 20
0.4450000000000001
 30
0.0
  0
VERTEX
  5
373
  8
1
 10
1.1189999999999991
 20
0.4450000000000001
 30
0.0
  0
VERTEX
  5
374
  8
1
 10
1.1189999999999991
 20
0.411
 30
0.0
  0
SEQEND
  5
375
  8
1
  0
POLYLINE
  5
376
  8
1
 66
     1
 10
0.0
 20
0.0
 30
0.0
 70
     1
  0
VERTEX
  5
377
  8
1
 10
1.1109999999999991
 20
0.435
 30
0.0
  0
VERTEX
  5
378
  8
1
 10
1.1109999999999991
 20
0.4450000000000001
 30
0.0
  0
VERTEX
  5
379
  8
1
 10
1.137
 20
0.4450000000000001
 30
0.0
  0
VERTEX
  5
37A
  8
1
 10
1.137
 20
0.435
 30
0.0
  0
SEQEND
  5
37B
  8
1
  0
POLYLINE
  5
37C
  8
1
 66
     1
 10
0.0
 20
0.0
 30
0.0
 70
     1
  0
VERTEX
  5
37D
  8
1
 10
1.135
 20
0.435
 30
0.0
  0
VERTEX
  5
37E
  8
1
 10
1.135
 20
0.4450000000000001
 30
0.0
  0
VERTEX
  5
37F
  8
1
 10
1.161
 20
0.4450000000000001
 30
0.0
  0
VERTEX
  5
380
  8
1
 10
1.161
 20
0.435
 30
0.0
  0
SEQEND
  5
381
  8
1
  0
POLYLINE
  5
382
  8
1
 66
     1
 10
0.0
 20
0.0
 30
0.0
 70
     1
  0
VERTEX
  5
383
  8
1
 10
1.153
 20
0.411
 30
0.0
  0
VERTEX
  5
384
  8
1
 10
1.153
 20
0.4450000000000001
 30
0.0
  0
VERTEX
  5
385
  8
1
 10
1.161
 20
0.4450000000000001
 30
0.0
  0
VERTEX
  5
386
  8
1
 10
1.161
 20
0.411
 30
0.0
  0
SEQEND
  5
387
  8
1
  0
POLYLINE
  5
388
  8
1
 66
     1
 10
0.0
 20
0.0
 30
0.0
 70
     1
  0
VERTEX
  5
389
  8
1
 10
1.153
 20
0.379
 30
0.0
  0
VERTEX
  5
38A
  8
1
 10
1.153
 20
0.413
 30
0.0
  0
VERTEX
  5
38B
  8
1
 10
1.161
 20
0.413
 30
0.0
  0
VERTEX
  5
38C
  8
1
 10
1.161
 20
0.379
 30
0.0
  0
SEQEND
  5
38D
  8
1
  0
POLYLINE
  5
38E
  8
1
 66
     1
 10
0.0
 20
0.0
 30
0.0
 70
     1
  0
VERTEX
  5
38F
  8
1
 10
1.135
 20
0.379
 30
0.0
  0
VERTEX
  5
390
  8
1
 10
1.135
 20
0.389
 30
0.0
  0
VERTEX
  5
391
  8
1
 10
1.161
 20
0.389
 30
0.0
  0
VERTEX
  5
392
  8
1
 10
1.161
 20
0.379
 30
0.0
  0
SEQEND
  5
393
  8
1
  0
POLYLINE
  5
394
  8
1
 66
     1
 10
0.0
 20
0.0
 30
0.0
 70
     1
  0
VERTEX
  5
395
  8
1
 10
1.1109999999999991
 20
0.379
 30
0.0
  0
VERTEX
  5
396
  8
1
 10
1.1109999999999991
 20
0.389
 30
0.0
  0
VERTEX
  5
397
  8
1
 10
1.137
 20
0.389
 30
0.0
  0
VERTEX
  5
398
  8
1
 10
1.137
 20
0.379
 30
0.0
  0
SEQEND
  5
399
  8
1
  0
POLYLINE
  5
39A
  8
1
 66
     1
 10
0.0
 20
0.0
 30
0.0
 70
     1
  0
VERTEX
  5
39B
  8
1
 10
1.1830000000000001
 20
0.407
 30
0.0
  0
VERTEX
  5
39C
  8
1
 10
1.1830000000000001
 20
0.417
 30
0.0
  0
VERTEX
  5
39D
  8
1
 10
1.2119999999999991
 20
0.417
 30
0.0
  0
VERTEX
  5
39E
  8
1
 10
1.2119999999999991
 20
0.407
 30
0.0
  0
SEQEND
  5
39F
  8
1
  0
POLYLINE
  5
3A0
  8
1
 66
     1
 10
0.0
 20
0.0
 30
0.0
 70
     1
  0
VERTEX
  5
3A1
  8
1
 10
1.2039999999999991
 20
0.407
 30
0.0
  0
VERTEX
  5
3A2
  8
1
 10
1.2039999999999991
 20
0.417
 30
0.0
  0
VERTEX
  5
3A3
  8
1
 10
1.2330000000000001
 20
0.417
 30
0.0
  0
VERTEX
  5
3A4
  8
1
 10
1.2330000000000001
 20
0.407
 30
0.0
  0
SEQEND
  5
3A5
  8
1
  0
POLYLINE
  5
3A6
  8
1
 66
     1
 10
0.0
 20
0.0
 30
0.0
 70
     1
  0
VERTEX
  5
3A7
  8
1
 10
1.296999999999999
 20
0.411
 30
0.0
  0
VERTEX
  5
3A8
  8
1
 10
1.296999999999999
 20
0.4450000000000001
 30
0.0
  0
VERTEX
  5
3A9
  8
1
 10
1.304999999999999
 20
0.4450000000000001
 30
0.0
  0
VERTEX
  5
3AA
  8
1
 10
1.304999999999999
 20
0.411
 30
0.0
  0
SEQEND
  5
3AB
  8
1
  0
POLYLINE
  5
3AC
  8
1
 66
     1
 10
0.0
 20
0.0
 30
0.0
 70
     1
  0
VERTEX
  5
3AD
  8
1
 10
1.296999999999999
 20
0.379
 30
0.0
  0
VERTEX
  5
3AE
  8
1
 10
1.296999999999999
 20
0.413
 30
0.0
  0
VERTEX
  5
3AF
  8
1
 10
1.304999999999999
 20
0.413
 30
0.0
  0
VERTEX
  5
3B0
  8
1
 10
1.304999999999999
 20
0.379
 30
0.0
  0
SEQEND
  5
3B1
  8
1
  0
POLYLINE
  5
3B2
  8
1
 66
     1
 10
0.0
 20
0.0
 30
0.0
 70
     1
  0
VERTEX
  5
3B3
  8
1
 10
1.28
 20
0.407
 30
0.0
  0
VERTEX
  5
3B4
  8
1
 10
1.274999999999999
 20
0.411
 30
0.0
  0
VERTEX
  5
3B5
  8
1
 10
1.298999999999999
 20
0.4440000000000001
 30
0.0
  0
VERTEX
  5
3B6
  8
1
 10
1.304
 20
0.4400000000000001
 30
0.0
  0
SEQEND
  5
3B7
  8
1
  0
POLYLINE
  5
3B8
  8
1
 66
     1
 10
0.0
 20
0.0
 30
0.0
 70
     1
  0
VERTEX
  5
3B9
  8
1
 10
1.3269999999999991
 20
0.411
 30
0.0
  0
VERTEX
  5
3BA
  8
1
 10
1.3269999999999991
 20
0.4450000000000001
 30
0.0
  0
VERTEX
  5
3BB
  8
1
 10
1.3349999999999991
 20
0.4450000000000001
 30
0.0
  0
VERTEX
  5
3BC
  8
1
 10
1.3349999999999991
 20
0.411
 30
0.0
  0
SEQEND
  5
3BD
  8
1
  0
POLYLINE
  5
3BE
  8
1
 66
     1
 10
0.0
 20
0.0
 30
0.0
 70
     1
  0
VERTEX
  5
3BF
  8
1
 10
1.3269999999999991
 20
0.435
 30
0.0
  0
VERTEX
  5
3C0
  8
1
 10
1.3269999999999991
 20
0.4450000000000001
 30
0.0
  0
VERTEX
  5
3C1
  8
1
 10
1.3529999999999991
 20
0.4450000000000001
 30
0.0
  0
VERTEX
  5
3C2
  8
1
 10
1.3529999999999991
 20
0.435
 30
0.0
  0
SEQEND
  5
3C3
  8
1
  0
POLYLINE
  5
3C4
  8
1
 66
     1
 10
0.0
 20
0.0
 30
0.0
 70
     1
  0
VERTEX
  5
3C5
  8
1
 10
1.3509999999999991
 20
0.435
 30
0.0
  0
VERTEX
  5
3C6
  8
1
 10
1.3509999999999991
 20
0.4450000000000001
 30
0.0
  0
VERTEX
  5
3C7
  8
1
 10
1.377
 20
0.4450000000000001
 30
0.0
  0
VERTEX
  5
3C8
  8
1
 10
1.377
 20
0.435
 30
0.0
  0
SEQEND
  5
3C9
  8
1
  0
POLYLINE
  5
3CA
  8
1
 66
     1
 10
0.0
 20
0.0
 30
0.0
 70
     1
  0
VERTEX
  5
3CB
  8
1
 10
1.3689999999999991
 20
0.379
 30
0.0
  0
VERTEX
  5
3CC
  8
1
 10
1.3689999999999991
 20
0.413
 30
0.0
  0
VERTEX
  5
3CD
  8
1
 10
1.377
 20
0.413
 30
0.0
  0
VERTEX
  5
3CE
  8
1
 10
1.377
 20
0.379
 30
0.0
  0
SEQEND
  5
3CF
  8
1
  0
POLYLINE
  5
3D0
  8
1
 66
     1
 10
0.0
 20
0.0
 30
0.0
 70
     1
  0
VERTEX
  5
3D1
  8
1
 10
1.3509999999999991
 20
0.379
 30
0.0
  0
VERTEX
  5
3D2
  8
1
 10
1.3509999999999991
 20
0.389
 30
0.0
  0
VERTEX
  5
3D3
  8
1
 10
1.377
 20
0.389
 30
0.0
  0
VERTEX
  5
3D4
  8
1
 10
1.377
 20
0.379
 30
0.0
  0
SEQEND
  5
3D5
  8
1
  0
POLYLINE
  5
3D6
  8
1
 66
     1
 10
0.0
 20
0.0
 30
0.0
 70
     1
  0
VERTEX
  5
3D7
  8
1
 10
1.3269999999999991
 20
0.379
 30
0.0
  0
VERTEX
  5
3D8
  8
1
 10
1.3269999999999991
 20
0.389
 30
0.0
  0
VERTEX
  5
3D9
  8
1
 10
1.3529999999999991
 20
0.389
 30
0.0
  0
VERTEX
  5
3DA
  8
1
 10
1.3529999999999991
 20
0.379
 30
0.0
  0
SEQEND
  5
3DB
  8
1
  0
POLYLINE
  5
3DC
  8
1
 66
     1
 10
0.0
 20
0.0
 30
0.0
 70
     1
  0
VERTEX
  5
3DD
  8
1
 10
1.3269999999999991
 20
0.407
 30
0.0
  0
VERTEX
  5
3DE
  8
1
 10
1.3269999999999991
 20
0.417
 30
0.0
  0
VERTEX
  5
3DF
  8
1
 10
1.3560000000000001
 20
0.417
 30
0.0
  0
VERTEX
  5
3E0
  8
1
 10
1.3560000000000001
 20
0.407
 30
0.0
  0
SEQEND
  5
3E1
  8
1
  0
POLYLINE
  5
3E2
  8
1
 66
     1
 10
0.0
 20
0.0
 30
0.0
 70
     1
  0
VERTEX
  5
3E3
  8
1
 10
1.3480000000000001
 20
0.407
 30
0.0
  0
VERTEX
  5
3E4
  8
1
 10
1.3480000000000001
 20
0.417
 30
0.0
  0
VERTEX
  5
3E5
  8
1
 10
1.377
 20
0.417
 30
0.0
  0
VERTEX
  5
3E6
  8
1
 10
1.377
 20
0.407
 30
0.0
  0
SEQEND
  5
3E7
  8
1
  0
POLYLINE
  5
3E8
  8
1
 66
     1
 10
0.0
 20
0.0
 30
0.0
 70
     1
  0
VERTEX
  5
3E9
  8
1
 10
0.6490000000000001
 20
1.278999999999999
 30
0.0
  0
VERTEX
  5
3EA
  8
1
 10
0.6490000000000001
 20
1.3129999999999991
 30
0.0
  0
VERTEX
  5
3EB
  8
1
 10
0.6570000000000001
 20
1.3129999999999991
 30
0.0
  0
VERTEX
  5
3EC
  8
1
 10
0.6570000000000001
 20
1.278999999999999
 30
0.0
  0
SEQEND
  5
3ED
  8
1
  0
POLYLINE
  5
3EE
  8
1
 66
     1
 10
0.0
 20
0.0
 30
0.0
 70
     1
  0
VERTEX
  5
3EF
  8
1
 10
0.6490000000000001
 20
1.3109999999999991
 30
0.0
  0
VERTEX
  5
3F0
  8
1
 10
0.6490000000000001
 20
1.3449999999999991
 30
0.0
  0
VERTEX
  5
3F1
  8
1
 10
0.6570000000000001
 20
1.3449999999999991
 30
0.0
  0
VERTEX
  5
3F2
  8
1
 10
0.6570000000000001
 20
1.3109999999999991
 30
0.0
  0
SEQEND
  5
3F3
  8
1
  0
POLYLINE
  5
3F4
  8
1
 66
     1
 10
0.0
 20
0.0
 30
0.0
 70
     1
  0
VERTEX
  5
3F5
  8
1
 10
0.6490000000000001
 20
1.3349999999999991
 30
0.0
  0
VERTEX
  5
3F6
  8
1
 10
0.6490000000000001
 20
1.3449999999999991
 30
0.0
  0
VERTEX
  5
3F7
  8
1
 10
0.675
 20
1.3449999999999991
 30
0.0
  0
VERTEX
  5
3F8
  8
1
 10
0.675
 20
1.3349999999999991
 30
0.0
  0
SEQEND
  5
3F9
  8
1
  0
POLYLINE
  5
3FA
  8
1
 66
     1
 10
0.0
 20
0.0
 30
0.0
 70
     1
  0
VERTEX
  5
3FB
  8
1
 10
0.6730000000000002
 20
1.3349999999999991
 30
0.0
  0
VERTEX
  5
3FC
  8
1
 10
0.6730000000000002
 20
1.3449999999999991
 30
0.0
  0
VERTEX
  5
3FD
  8
1
 10
0.699
 20
1.3449999999999991
 30
0.0
  0
VERTEX
  5
3FE
  8
1
 10
0.699
 20
1.3349999999999991
 30
0.0
  0
SEQEND
  5
3FF
  8
1
  0
POLYLINE
  5
400
  8
1
 66
     1
 10
0.0
 20
0.0
 30
0.0
 70
     1
  0
VERTEX
  5
401
  8
1
 10
0.691
 20
1.3109999999999991
 30
0.0
  0
VERTEX
  5
402
  8
1
 10
0.691
 20
1.3449999999999991
 30
0.0
  0
VERTEX
  5
403
  8
1
 10
0.699
 20
1.3449999999999991
 30
0.0
  0
VERTEX
  5
404
  8
1
 10
0.699
 20
1.3109999999999991
 30
0.0
  0
SEQEND
  5
405
  8
1
  0
POLYLINE
  5
406
  8
1
 66
     1
 10
0.0
 20
0.0
 30
0.0
 70
     1
  0
VERTEX
  5
407
  8
1
 10
0.6490000000000001
 20
1.3069999999999991
 30
0.0
  0
VERTEX
  5
408
  8
1
 10
0.6490000000000001
 20
1.3169999999999991
 30
0.0
  0
VERTEX
  5
409
  8
1
 10
0.6780000000000001
 20
1.3169999999999991
 30
0.0
  0
VERTEX
  5
40A
  8
1
 10
0.6780000000000001
 20
1.3069999999999991
 30
0.0
  0
SEQEND
  5
40B
  8
1
  0
POLYLINE
  5
40C
  8
1
 66
     1
 10
0.0
 20
0.0
 30
0.0
 70
     1
  0
VERTEX
  5
40D
  8
1
 10
0.6700000000000002
 20
1.3069999999999991
 30
0.0
  0
VERTEX
  5
40E
  8
1
 10
0.6700000000000002
 20
1.3169999999999991
 30
0.0
  0
VERTEX
  5
40F
  8
1
 10
0.699
 20
1.3169999999999991
 30
0.0
  0
VERTEX
  5
410
  8
1
 10
0.699
 20
1.3069999999999991
 30
0.0
  0
SEQEND
  5
411
  8
1
  0
POLYLINE
  5
412
  8
1
 66
     1
 10
0.0
 20
0.0
 30
0.0
 70
     1
  0
VERTEX
  5
413
  8
1
 10
0.6690000000000002
 20
1.3120000000000001
 30
0.0
  0
VERTEX
  5
414
  8
1
 10
0.6740000000000002
 20
1.3160000000000001
 30
0.0
  0
VERTEX
  5
415
  8
1
 10
0.698
 20
1.282999999999999
 30
0.0
  0
VERTEX
  5
416
  8
1
 10
0.693
 20
1.28
 30
0.0
  0
SEQEND
  5
417
  8
1
  0
POLYLINE
  5
418
  8
1
 66
     1
 10
0.0
 20
0.0
 30
0.0
 70
     1
  0
VERTEX
  5
419
  8
1
 10
0.721
 20
1.278999999999999
 30
0.0
  0
VERTEX
  5
41A
  8
1
 10
0.721
 20
1.3129999999999991
 30
0.0
  0
VERTEX
  5
41B
  8
1
 10
0.729
 20
1.3129999999999991
 30
0.0
  0
VERTEX
  5
41C
  8
1
 10
0.729
 20
1.278999999999999
 30
0.0
  0
SEQEND
  5
41D
  8
1
  0
POLYLINE
  5
41E
  8
1
 66
     1
 10
0.0
 20
0.0
 30
0.0
 70
     1
  0
VERTEX
  5
41F
  8
1
 10
0.721
 20
1.3109999999999991
 30
0.0
  0
VERTEX
  5
420
  8
1
 10
0.721
 20
1.3449999999999991
 30
0.0
  0
VERTEX
  5
421
  8
1
 10
0.729
 20
1.3449999999999991
 30
0.0
  0
VERTEX
  5
422
  8
1
 10
0.729
 20
1.3109999999999991
 30
0.0
  0
SEQEND
  5
423
  8
1
  0
POLYLINE
  5
424
  8
1
 66
     1
 10
0.0
 20
0.0
 30
0.0
 70
     1
  0
VERTEX
  5
425
  8
1
 10
0.721
 20
1.3349999999999991
 30
0.0
  0
VERTEX
  5
426
  8
1
 10
0.721
 20
1.3449999999999991
 30
0.0
  0
VERTEX
  5
427
  8
1
 10
0.747
 20
1.3449999999999991
 30
0.0
  0
VERTEX
  5
428
  8
1
 10
0.747
 20
1.3349999999999991
 30
0.0
  0
SEQEND
  5
429
  8
1
  0
POLYLINE
  5
42A
  8
1
 66
     1
 10
0.0
 20
0.0
 30
0.0
 70
     1
  0
VERTEX
  5
42B
  8
1
 10
0.7450000000000001
 20
1.3349999999999991
 30
0.0
  0
VERTEX
  5
42C
  8
1
 10
0.7450000000000001
 20
1.3449999999999991
 30
0.0
  0
VERTEX
  5
42D
  8
1
 10
0.771
 20
1.3449999999999991
 30
0.0
  0
VERTEX
  5
42E
  8
1
 10
0.771
 20
1.3349999999999991
 30
0.0
  0
SEQEND
  5
42F
  8
1
  0
POLYLINE
  5
430
  8
1
 66
     1
 10
0.0
 20
0.0
 30
0.0
 70
     1
  0
VERTEX
  5
431
  8
1
 10
0.7450000000000001
 20
1.278999999999999
 30
0.0
  0
VERTEX
  5
432
  8
1
 10
0.7450000000000001
 20
1.288999999999999
 30
0.0
  0
VERTEX
  5
433
  8
1
 10
0.771
 20
1.288999999999999
 30
0.0
  0
VERTEX
  5
434
  8
1
 10
0.771
 20
1.278999999999999
 30
0.0
  0
SEQEND
  5
435
  8
1
  0
POLYLINE
  5
436
  8
1
 66
     1
 10
0.0
 20
0.0
 30
0.0
 70
     1
  0
VERTEX
  5
437
  8
1
 10
0.721
 20
1.278999999999999
 30
0.0
  0
VERTEX
  5
438
  8
1
 10
0.721
 20
1.288999999999999
 30
0.0
  0
VERTEX
  5
439
  8
1
 10
0.747
 20
1.288999999999999
 30
0.0
  0
VERTEX
  5
43A
  8
1
 10
0.747
 20
1.278999999999999
 30
0.0
  0
SEQEND
  5
43B
  8
1
  0
POLYLINE
  5
43C
  8
1
 66
     1
 10
0.0
 20
0.0
 30
0.0
 70
     1
  0
VERTEX
  5
43D
  8
1
 10
0.7930000000000002
 20
1.3069999999999991
 30
0.0
  0
VERTEX
  5
43E
  8
1
 10
0.7930000000000002
 20
1.3169999999999991
 30
0.0
  0
VERTEX
  5
43F
  8
1
 10
0.8219999999999998
 20
1.3169999999999991
 30
0.0
  0
VERTEX
  5
440
  8
1
 10
0.8219999999999998
 20
1.3069999999999991
 30
0.0
  0
SEQEND
  5
441
  8
1
  0
POLYLINE
  5
442
  8
1
 66
     1
 10
0.0
 20
0.0
 30
0.0
 70
     1
  0
VERTEX
  5
443
  8
1
 10
0.8139999999999998
 20
1.3069999999999991
 30
0.0
  0
VERTEX
  5
444
  8
1
 10
0.8139999999999998
 20
1.3169999999999991
 30
0.0
  0
VERTEX
  5
445
  8
1
 10
0.8429999999999999
 20
1.3169999999999991
 30
0.0
  0
VERTEX
  5
446
  8
1
 10
0.8429999999999999
 20
1.3069999999999991
 30
0.0
  0
SEQEND
  5
447
  8
1
  0
POLYLINE
  5
448
  8
1
 66
     1
 10
0.0
 20
0.0
 30
0.0
 70
     1
  0
VERTEX
  5
449
  8
1
 10
0.865
 20
1.278999999999999
 30
0.0
  0
VERTEX
  5
44A
  8
1
 10
0.865
 20
1.3129999999999991
 30
0.0
  0
VERTEX
  5
44B
  8
1
 10
0.873
 20
1.3129999999999991
 30
0.0
  0
VERTEX
  5
44C
  8
1
 10
0.873
 20
1.278999999999999
 30
0.0
  0
SEQEND
  5
44D
  8
1
  0
POLYLINE
  5
44E
  8
1
 66
     1
 10
0.0
 20
0.0
 30
0.0
 70
     1
  0
VERTEX
  5
44F
  8
1
 10
0.865
 20
1.3349999999999991
 30
0.0
  0
VERTEX
  5
450
  8
1
 10
0.865
 20
1.3449999999999991
 30
0.0
  0
VERTEX
  5
451
  8
1
 10
0.891
 20
1.3449999999999991
 30
0.0
  0
VERTEX
  5
452
  8
1
 10
0.891
 20
1.3349999999999991
 30
0.0
  0
SEQEND
  5
453
  8
1
  0
POLYLINE
  5
454
  8
1
 66
     1
 10
0.0
 20
0.0
 30
0.0
 70
     1
  0
VERTEX
  5
455
  8
1
 10
0.889
 20
1.3349999999999991
 30
0.0
  0
VERTEX
  5
456
  8
1
 10
0.889
 20
1.3449999999999991
 30
0.0
  0
VERTEX
  5
457
  8
1
 10
0.915
 20
1.3449999999999991
 30
0.0
  0
VERTEX
  5
458
  8
1
 10
0.915
 20
1.3349999999999991
 30
0.0
  0
SEQEND
  5
459
  8
1
  0
POLYLINE
  5
45A
  8
1
 66
     1
 10
0.0
 20
0.0
 30
0.0
 70
     1
  0
VERTEX
  5
45B
  8
1
 10
0.907
 20
1.3109999999999991
 30
0.0
  0
VERTEX
  5
45C
  8
1
 10
0.907
 20
1.3449999999999991
 30
0.0
  0
VERTEX
  5
45D
  8
1
 10
0.915
 20
1.3449999999999991
 30
0.0
  0
VERTEX
  5
45E
  8
1
 10
0.915
 20
1.3109999999999991
 30
0.0
  0
SEQEND
  5
45F
  8
1
  0
POLYLINE
  5
460
  8
1
 66
     1
 10
0.0
 20
0.0
 30
0.0
 70
     1
  0
VERTEX
  5
461
  8
1
 10
0.889
 20
1.278999999999999
 30
0.0
  0
VERTEX
  5
462
  8
1
 10
0.889
 20
1.288999999999999
 30
0.0
  0
VERTEX
  5
463
  8
1
 10
0.915
 20
1.288999999999999
 30
0.0
  0
VERTEX
  5
464
  8
1
 10
0.915
 20
1.278999999999999
 30
0.0
  0
SEQEND
  5
465
  8
1
  0
POLYLINE
  5
466
  8
1
 66
     1
 10
0.0
 20
0.0
 30
0.0
 70
     1
  0
VERTEX
  5
467
  8
1
 10
0.865
 20
1.278999999999999
 30
0.0
  0
VERTEX
  5
468
  8
1
 10
0.865
 20
1.288999999999999
 30
0.0
  0
VERTEX
  5
469
  8
1
 10
0.891
 20
1.288999999999999
 30
0.0
  0
VERTEX
  5
46A
  8
1
 10
0.891
 20
1.278999999999999
 30
0.0
  0
SEQEND
  5
46B
  8
1
  0
POLYLINE
  5
46C
  8
1
 66
     1
 10
0.0
 20
0.0
 30
0.0
 70
     1
  0
VERTEX
  5
46D
  8
1
 10
0.865
 20
1.3069999999999991
 30
0.0
  0
VERTEX
  5
46E
  8
1
 10
0.865
 20
1.3169999999999991
 30
0.0
  0
VERTEX
  5
46F
  8
1
 10
0.8939999999999999
 20
1.3169999999999991
 30
0.0
  0
VERTEX
  5
470
  8
1
 10
0.8939999999999999
 20
1.3069999999999991
 30
0.0
  0
SEQEND
  5
471
  8
1
  0
POLYLINE
  5
472
  8
1
 66
     1
 10
0.0
 20
0.0
 30
0.0
 70
     1
  0
VERTEX
  5
473
  8
1
 10
0.8859999999999999
 20
1.3069999999999991
 30
0.0
  0
VERTEX
  5
474
  8
1
 10
0.8859999999999999
 20
1.3169999999999991
 30
0.0
  0
VERTEX
  5
475
  8
1
 10
0.915
 20
1.3169999999999991
 30
0.0
  0
VERTEX
  5
476
  8
1
 10
0.915
 20
1.3069999999999991
 30
0.0
  0
SEQEND
  5
477
  8
1
  0
POLYLINE
  5
478
  8
1
 66
     1
 10
0.0
 20
0.0
 30
0.0
 70
     1
  0
VERTEX
  5
479
  8
1
 10
0.9370000000000001
 20
1.278999999999999
 30
0.0
  0
VERTEX
  5
47A
  8
1
 10
0.9370000000000001
 20
1.3129999999999991
 30
0.0
  0
VERTEX
  5
47B
  8
1
 10
0.945
 20
1.3129999999999991
 30
0.0
  0
VERTEX
  5
47C
  8
1
 10
0.945
 20
1.278999999999999
 30
0.0
  0
SEQEND
  5
47D
  8
1
  0
POLYLINE
  5
47E
  8
1
 66
     1
 10
0.0
 20
0.0
 30
0.0
 70
     1
  0
VERTEX
  5
47F
  8
1
 10
0.9370000000000001
 20
1.3109999999999991
 30
0.0
  0
VERTEX
  5
480
  8
1
 10
0.9370000000000001
 20
1.3449999999999991
 30
0.0
  0
VERTEX
  5
481
  8
1
 10
0.945
 20
1.3449999999999991
 30
0.0
  0
VERTEX
  5
482
  8
1
 10
0.945
 20
1.3109999999999991
 30
0.0
  0
SEQEND
  5
483
  8
1
  0
POLYLINE
  5
484
  8
1
 66
     1
 10
0.0
 20
0.0
 30
0.0
 70
     1
  0
VERTEX
  5
485
  8
1
 10
0.9370000000000001
 20
1.3349999999999991
 30
0.0
  0
VERTEX
  5
486
  8
1
 10
0.9370000000000001
 20
1.3449999999999991
 30
0.0
  0
VERTEX
  5
487
  8
1
 10
0.9629999999999999
 20
1.3449999999999991
 30
0.0
  0
VERTEX
  5
488
  8
1
 10
0.9629999999999999
 20
1.3349999999999991
 30
0.0
  0
SEQEND
  5
489
  8
1
  0
POLYLINE
  5
48A
  8
1
 66
     1
 10
0.0
 20
0.0
 30
0.0
 70
     1
  0
VERTEX
  5
48B
  8
1
 10
0.9609999999999999
 20
1.3349999999999991
 30
0.0
  0
VERTEX
  5
48C
  8
1
 10
0.9609999999999999
 20
1.3449999999999991
 30
0.0
  0
VERTEX
  5
48D
  8
1
 10
0.9869999999999999
 20
1.3449999999999991
 30
0.0
  0
VERTEX
  5
48E
  8
1
 10
0.9869999999999999
 20
1.3349999999999991
 30
0.0
  0
SEQEND
  5
48F
  8
1
  0
POLYLINE
  5
490
  8
1
 66
     1
 10
0.0
 20
0.0
 30
0.0
 70
     1
  0
VERTEX
  5
491
  8
1
 10
0.9789999999999999
 20
1.3109999999999991
 30
0.0
  0
VERTEX
  5
492
  8
1
 10
0.9789999999999999
 20
1.3449999999999991
 30
0.0
  0
VERTEX
  5
493
  8
1
 10
0.9869999999999999
 20
1.3449999999999991
 30
0.0
  0
VERTEX
  5
494
  8
1
 10
0.9869999999999999
 20
1.3109999999999991
 30
0.0
  0
SEQEND
  5
495
  8
1
  0
POLYLINE
  5
496
  8
1
 66
     1
 10
0.0
 20
0.0
 30
0.0
 70
     1
  0
VERTEX
  5
497
  8
1
 10
0.9789999999999999
 20
1.278999999999999
 30
0.0
  0
VERTEX
  5
498
  8
1
 10
0.9789999999999999
 20
1.3129999999999991
 30
0.0
  0
VERTEX
  5
499
  8
1
 10
0.9869999999999999
 20
1.3129999999999991
 30
0.0
  0
VERTEX
  5
49A
  8
1
 10
0.9869999999999999
 20
1.278999999999999
 30
0.0
  0
SEQEND
  5
49B
  8
1
  0
POLYLINE
  5
49C
  8
1
 66
     1
 10
0.0
 20
0.0
 30
0.0
 70
     1
  0
VERTEX
  5
49D
  8
1
 10
0.9609999999999999
 20
1.278999999999999
 30
0.0
  0
VERTEX
  5
49E
  8
1
 10
0.9609999999999999
 20
1.288999999999999
 30
0.0
  0
VERTEX
  5
49F
  8
1
 10
0.9869999999999999
 20
1.288999999999999
 30
0.0
  0
VERTEX
  5
4A0
  8
1
 10
0.9869999999999999
 20
1.278999999999999
 30
0.0
  0
SEQEND
  5
4A1
  8
1
  0
POLYLINE
  5
4A2
  8
1
 66
     1
 10
0.0
 20
0.0
 30
0.0
 70
     1
  0
VERTEX
  5
4A3
  8
1
 10
0.9370000000000001
 20
1.278999999999999
 30
0.0
  0
VERTEX
  5
4A4
  8
1
 10
0.9370000000000001
 20
1.288999999999999
 30
0.0
  0
VERTEX
  5
4A5
  8
1
 10
0.9629999999999999
 20
1.288999999999999
 30
0.0
  0
VERTEX
  5
4A6
  8
1
 10
0.9629999999999999
 20
1.278999999999999
 30
0.0
  0
SEQEND
  5
4A7
  8
1
  0
POLYLINE
  5
4A8
  8
1
 66
     1
 10
0.0
 20
0.0
 30
0.0
 70
     1
  0
VERTEX
  5
4A9
  8
1
 10
1.008999999999999
 20
1.278999999999999
 30
0.0
  0
VERTEX
  5
4AA
  8
1
 10
1.008999999999999
 20
1.3129999999999991
 30
0.0
  0
VERTEX
  5
4AB
  8
1
 10
1.016999999999999
 20
1.3129999999999991
 30
0.0
  0
VERTEX
  5
4AC
  8
1
 10
1.016999999999999
 20
1.278999999999999
 30
0.0
  0
SEQEND
  5
4AD
  8
1
  0
POLYLINE
  5
4AE
  8
1
 66
     1
 10
0.0
 20
0.0
 30
0.0
 70
     1
  0
VERTEX
  5
4AF
  8
1
 10
1.008999999999999
 20
1.3109999999999991
 30
0.0
  0
VERTEX
  5
4B0
  8
1
 10
1.008999999999999
 20
1.3449999999999991
 30
0.0
  0
VERTEX
  5
4B1
  8
1
 10
1.016999999999999
 20
1.3449999999999991
 30
0.0
  0
VERTEX
  5
4B2
  8
1
 10
1.016999999999999
 20
1.3109999999999991
 30
0.0
  0
SEQEND
  5
4B3
  8
1
  0
POLYLINE
  5
4B4
  8
1
 66
     1
 10
0.0
 20
0.0
 30
0.0
 70
     1
  0
VERTEX
  5
4B5
  8
1
 10
1.008999999999999
 20
1.3349999999999991
 30
0.0
  0
VERTEX
  5
4B6
  8
1
 10
1.008999999999999
 20
1.3449999999999991
 30
0.0
  0
VERTEX
  5
4B7
  8
1
 10
1.034999999999999
 20
1.3449999999999991
 30
0.0
  0
VERTEX
  5
4B8
  8
1
 10
1.034999999999999
 20
1.3349999999999991
 30
0.0
  0
SEQEND
  5
4B9
  8
1
  0
POLYLINE
  5
4BA
  8
1
 66
     1
 10
0.0
 20
0.0
 30
0.0
 70
     1
  0
VERTEX
  5
4BB
  8
1
 10
1.032999999999999
 20
1.3349999999999991
 30
0.0
  0
VERTEX
  5
4BC
  8
1
 10
1.032999999999999
 20
1.3449999999999991
 30
0.0
  0
VERTEX
  5
4BD
  8
1
 10
1.0589999999999991
 20
1.3449999999999991
 30
0.0
  0
VERTEX
  5
4BE
  8
1
 10
1.0589999999999991
 20
1.3349999999999991
 30
0.0
  0
SEQEND
  5
4BF
  8
1
  0
POLYLINE
  5
4C0
  8
1
 66
     1
 10
0.0
 20
0.0
 30
0.0
 70
     1
  0
VERTEX
  5
4C1
  8
1
 10
1.050999999999999
 20
1.3109999999999991
 30
0.0
  0
VERTEX
  5
4C2
  8
1
 10
1.050999999999999
 20
1.3449999999999991
 30
0.0
  0
VERTEX
  5
4C3
  8
1
 10
1.0589999999999991
 20
1.3449999999999991
 30
0.0
  0
VERTEX
  5
4C4
  8
1
 10
1.0589999999999991
 20
1.3109999999999991
 30
0.0
  0
SEQEND
  5
4C5
  8
1
  0
POLYLINE
  5
4C6
  8
1
 66
     1
 10
0.0
 20
0.0
 30
0.0
 70
     1
  0
VERTEX
  5
4C7
  8
1
 10
1.050999999999999
 20
1.278999999999999
 30
0.0
  0
VERTEX
  5
4C8
  8
1
 10
1.050999999999999
 20
1.3129999999999991
 30
0.0
  0
VERTEX
  5
4C9
  8
1
 10
1.0589999999999991
 20
1.3129999999999991
 30
0.0
  0
VERTEX
  5
4CA
  8
1
 10
1.0589999999999991
 20
1.278999999999999
 30
0.0
  0
SEQEND
  5
4CB
  8
1
  0
POLYLINE
  5
4CC
  8
1
 66
     1
 10
0.0
 20
0.0
 30
0.0
 70
     1
  0
VERTEX
  5
4CD
  8
1
 10
1.032999999999999
 20
1.278999999999999
 30
0.0
  0
VERTEX
  5
4CE
  8
1
 10
1.032999999999999
 20
1.288999999999999
 30
0.0
  0
VERTEX
  5
4CF
  8
1
 10
1.0589999999999991
 20
1.288999999999999
 30
0.0
  0
VERTEX
  5
4D0
  8
1
 10
1.0589999999999991
 20
1.278999999999999
 30
0.0
  0
SEQEND
  5
4D1
  8
1
  0
POLYLINE
  5
4D2
  8
1
 66
     1
 10
0.0
 20
0.0
 30
0.0
 70
     1
  0
VERTEX
  5
4D3
  8
1
 10
1.008999999999999
 20
1.278999999999999
 30
0.0
  0
VERTEX
  5
4D4
  8
1
 10
1.008999999999999
 20
1.288999999999999
 30
0.0
  0
VERTEX
  5
4D5
  8
1
 10
1.034999999999999
 20
1.288999999999999
 30
0.0
  0
VERTEX
  5
4D6
  8
1
 10
1.034999999999999
 20
1.278999999999999
 30
0.0
  0
SEQEND
  5
4D7
  8
1
  0
POLYLINE
  5
4D8
  8
1
 66
     1
 10
0.0
 20
0.0
 30
0.0
 70
     1
  0
VERTEX
  5
4D9
  8
1
 10
1.0809999999999991
 20
1.278999999999999
 30
0.0
  0
VERTEX
  5
4DA
  8
1
 10
1.0809999999999991
 20
1.3129999999999991
 30
0.0
  0
VERTEX
  5
4DB
  8
1
 10
1.0889999999999991
 20
1.3129999999999991
 30
0.0
  0
VERTEX
  5
4DC
  8
1
 10
1.0889999999999991
 20
1.278999999999999
 30
0.0
  0
SEQEND
  5
4DD
  8
1
  0
POLYLINE
  5
4DE
  8
1
 66
     1
 10
0.0
 20
0.0
 30
0.0
 70
     1
  0
VERTEX
  5
4DF
  8
1
 10
1.0809999999999991
 20
1.3109999999999991
 30
0.0
  0
VERTEX
  5
4E0
  8
1
 10
1.0809999999999991
 20
1.3449999999999991
 30
0.0
  0
VERTEX
  5
4E1
  8
1
 10
1.0889999999999991
 20
1.3449999999999991
 30
0.0
  0
VERTEX
  5
4E2
  8
1
 10
1.0889999999999991
 20
1.3109999999999991
 30
0.0
  0
SEQEND
  5
4E3
  8
1
  0
POLYLINE
  5
4E4
  8
1
 66
     1
 10
0.0
 20
0.0
 30
0.0
 70
     1
  0
VERTEX
  5
4E5
  8
1
 10
1.0809999999999991
 20
1.3349999999999991
 30
0.0
  0
VERTEX
  5
4E6
  8
1
 10
1.0809999999999991
 20
1.3449999999999991
 30
0.0
  0
VERTEX
  5
4E7
  8
1
 10
1.1069999999999991
 20
1.3449999999999991
 30
0.0
  0
VERTEX
  5
4E8
  8
1
 10
1.1069999999999991
 20
1.3349999999999991
 30
0.0
  0
SEQEND
  5
4E9
  8
1
  0
POLYLINE
  5
4EA
  8
1
 66
     1
 10
0.0
 20
0.0
 30
0.0
 70
     1
  0
VERTEX
  5
4EB
  8
1
 10
1.1049999999999991
 20
1.3349999999999991
 30
0.0
  0
VERTEX
  5
4EC
  8
1
 10
1.1049999999999991
 20
1.3449999999999991
 30
0.0
  0
VERTEX
  5
4ED
  8
1
 10
1.131
 20
1.3449999999999991
 30
0.0
  0
VERTEX
  5
4EE
  8
1
 10
1.131
 20
1.3349999999999991
 30
0.0
  0
SEQEND
  5
4EF
  8
1
  0
POLYLINE
  5
4F0
  8
1
 66
     1
 10
0.0
 20
0.0
 30
0.0
 70
     1
  0
VERTEX
  5
4F1
  8
1
 10
1.1229999999999991
 20
1.3109999999999991
 30
0.0
  0
VERTEX
  5
4F2
  8
1
 10
1.1229999999999991
 20
1.3449999999999991
 30
0.0
  0
VERTEX
  5
4F3
  8
1
 10
1.131
 20
1.3449999999999991
 30
0.0
  0
VERTEX
  5
4F4
  8
1
 10
1.131
 20
1.3109999999999991
 30
0.0
  0
SEQEND
  5
4F5
  8
1
  0
POLYLINE
  5
4F6
  8
1
 66
     1
 10
0.0
 20
0.0
 30
0.0
 70
     1
  0
VERTEX
  5
4F7
  8
1
 10
1.1229999999999991
 20
1.278999999999999
 30
0.0
  0
VERTEX
  5
4F8
  8
1
 10
1.1229999999999991
 20
1.3129999999999991
 30
0.0
  0
VERTEX
  5
4F9
  8
1
 10
1.131
 20
1.3129999999999991
 30
0.0
  0
VERTEX
  5
4FA
  8
1
 10
1.131
 20
1.278999999999999
 30
0.0
  0
SEQEND
  5
4FB
  8
1
  0
POLYLINE
  5
4FC
  8
1
 66
     1
 10
0.0
 20
0.0
 30
0.0
 70
     1
  0
VERTEX
  5
4FD
  8
1
 10
1.1049999999999991
 20
1.278999999999999
 30
0.0
  0
VERTEX
  5
4FE
  8
1
 10
1.1049999999999991
 20
1.288999999999999
 30
0.0
  0
VERTEX
  5
4FF
  8
1
 10
1.131
 20
1.288999999999999
 30
0.0
  0
VERTEX
  5
500
  8
1
 10
1.131
 20
1.278999999999999
 30
0.0
  0
SEQEND
  5
501
  8
1
  0
POLYLINE
  5
502
  8
1
 66
     1
 10
0.0
 20
0.0
 30
0.0
 70
     1
  0
VERTEX
  5
503
  8
1
 10
1.0809999999999991
 20
1.278999999999999
 30
0.0
  0
VERTEX
  5
504
  8
1
 10
1.0809999999999991
 20
1.288999999999999
 30
0.0
  0
VERTEX
  5
505
  8
1
 10
1.1069999999999991
 20
1.288999999999999
 30
0.0
  0
VERTEX
  5
506
  8
1
 10
1.1069999999999991
 20
1.278999999999999
 30
0.0
  0
SEQEND
  5
507
  8
1
  0
POLYLINE
  5
508
  8
1
 66
     1
 10
0.0
 20
0.0
 30
0.0
 70
     1
  0
VERTEX
  5
509
  8
1
 10
1.153
 20
1.3069999999999991
 30
0.0
  0
VERTEX
  5
50A
  8
1
 10
1.153
 20
1.3169999999999991
 30
0.0
  0
VERTEX
  5
50B
  8
1
 10
1.1819999999999991
 20
1.3169999999999991
 30
0.0
  0
VERTEX
  5
50C
  8
1
 10
1.1819999999999991
 20
1.3069999999999991
 30
0.0
  0
SEQEND
  5
50D
  8
1
  0
POLYLINE
  5
50E
  8
1
 66
     1
 10
0.0
 20
0.0
 30
0.0
 70
     1
  0
VERTEX
  5
50F
  8
1
 10
1.173999999999999
 20
1.3069999999999991
 30
0.0
  0
VERTEX
  5
510
  8
1
 10
1.173999999999999
 20
1.3169999999999991
 30
0.0
  0
VERTEX
  5
511
  8
1
 10
1.2030000000000001
 20
1.3169999999999991
 30
0.0
  0
VERTEX
  5
512
  8
1
 10
1.2030000000000001
 20
1.3069999999999991
 30
0.0
  0
SEQEND
  5
513
  8
1
  0
POLYLINE
  5
514
  8
1
 66
     1
 10
0.0
 20
0.0
 30
0.0
 70
     1
  0
VERTEX
  5
515
  8
1
 10
1.2250000000000001
 20
1.3109999999999991
 30
0.0
  0
VERTEX
  5
516
  8
1
 10
1.2250000000000001
 20
1.3449999999999991
 30
0.0
  0
VERTEX
  5
517
  8
1
 10
1.2330000000000001
 20
1.3449999999999991
 30
0.0
  0
VERTEX
  5
518
  8
1
 10
1.2330000000000001
 20
1.3109999999999991
 30
0.0
  0
SEQEND
  5
519
  8
1
  0
POLYLINE
  5
51A
  8
1
 66
     1
 10
0.0
 20
0.0
 30
0.0
 70
     1
  0
VERTEX
  5
51B
  8
1
 10
1.266999999999999
 20
1.3109999999999991
 30
0.0
  0
VERTEX
  5
51C
  8
1
 10
1.266999999999999
 20
1.3449999999999991
 30
0.0
  0
VERTEX
  5
51D
  8
1
 10
1.274999999999999
 20
1.3449999999999991
 30
0.0
  0
VERTEX
  5
51E
  8
1
 10
1.274999999999999
 20
1.3109999999999991
 30
0.0
  0
SEQEND
  5
51F
  8
1
  0
POLYLINE
  5
520
  8
1
 66
     1
 10
0.0
 20
0.0
 30
0.0
 70
     1
  0
VERTEX
  5
521
  8
1
 10
1.266999999999999
 20
1.278999999999999
 30
0.0
  0
VERTEX
  5
522
  8
1
 10
1.266999999999999
 20
1.3129999999999991
 30
0.0
  0
VERTEX
  5
523
  8
1
 10
1.274999999999999
 20
1.3129999999999991
 30
0.0
  0
VERTEX
  5
524
  8
1
 10
1.274999999999999
 20
1.278999999999999
 30
0.0
  0
SEQEND
  5
525
  8
1
  0
POLYLINE
  5
526
  8
1
 66
     1
 10
0.0
 20
0.0
 30
0.0
 70
     1
  0
VERTEX
  5
527
  8
1
 10
1.2250000000000001
 20
1.3069999999999991
 30
0.0
  0
VERTEX
  5
528
  8
1
 10
1.2250000000000001
 20
1.3169999999999991
 30
0.0
  0
VERTEX
  5
529
  8
1
 10
1.254
 20
1.3169999999999991
 30
0.0
  0
VERTEX
  5
52A
  8
1
 10
1.254
 20
1.3069999999999991
 30
0.0
  0
SEQEND
  5
52B
  8
1
  0
POLYLINE
  5
52C
  8
1
 66
     1
 10
0.0
 20
0.0
 30
0.0
 70
     1
  0
VERTEX
  5
52D
  8
1
 10
1.2459999999999991
 20
1.3069999999999991
 30
0.0
  0
VERTEX
  5
52E
  8
1
 10
1.2459999999999991
 20
1.3169999999999991
 30
0.0
  0
VERTEX
  5
52F
  8
1
 10
1.274999999999999
 20
1.3169999999999991
 30
0.0
  0
VERTEX
  5
530
  8
1
 10
1.274999999999999
 20
1.3069999999999991
 30
0.0
  0
SEQEND
  5
531
  8
1
  0
POLYLINE
  5
532
  8
1
 66
     1
 10
0.0
 20
0.0
 30
0.0
 70
     1
  0
VERTEX
  5
533
  8
1
 10
1.6160000000000001
 20
0.289
 30
0.0
  0
VERTEX
  5
534
  8
1
 10
1.599
 20
0.289
 30
0.0
  0
VERTEX
  5
535
  8
1
 10
1.599
 20
0.349
 30
0.0
  0
VERTEX
  5
536
  8
1
 10
0.251
 20
0.349
 30
0.0
  0
VERTEX
  5
537
  8
1
 10
0.251
 20
0.289
 30
0.0
  0
VERTEX
  5
538
  8
1
 10
0.234
 20
0.289
 30
0.0
  0
VERTEX
  5
539
  8
1
 10
0.234
 20
0.366
 30
0.0
  0
VERTEX
  5
53A
  8
1
 10
1.6160000000000001
 20
0.366
 30
0.0
  0
SEQEND
  5
53B
  8
1
  0
POLYLINE
  5
53C
  8
1
 66
     1
 10
0.0
 20
0.0
 30
0.0
 70
     1
  0
VERTEX
  5
53D
  8
1
 10
1.3340000000000001
 20
0.366
 30
0.0
  0
VERTEX
  5
53E
  8
1
 10
1.3509999999999991
 20
0.366
 30
0.0
  0
VERTEX
  5
53F
  8
1
 10
1.3509999999999991
 20
0.319
 30
0.0
  0
VERTEX
  5
540
  8
1
 10
1.284
 20
0.319
 30
0.0
  0
VERTEX
  5
541
  8
1
 10
1.284
 20
0.336
 30
0.0
  0
VERTEX
  5
542
  8
1
 10
1.3340000000000001
 20
0.336
 30
0.0
  0
SEQEND
  5
543
  8
1
  0
POLYLINE
  5
544
  8
1
 66
     1
 10
0.0
 20
0.0
 30
0.0
 70
     1
  0
VERTEX
  5
545
  8
1
 10
1.2350000000000001
 20
0.319
 30
0.0
  0
VERTEX
  5
546
  8
1
 10
1.2350000000000001
 20
0.324
 30
0.0
  0
VERTEX
  5
547
  8
1
 10
1.3
 20
0.324
 30
0.0
  0
VERTEX
  5
548
  8
1
 10
1.3
 20
0.319
 30
0.0
  0
SEQEND
  5
549
  8
1
  0
POLYLINE
  5
54A
  8
1
 66
     1
 10
0.0
 20
0.0
 30
0.0
 70
     1
  0
VERTEX
  5
54B
  8
1
 10
1.2390000000000001
 20
0.279
 30
0.0
  0
VERTEX
  5
54C
  8
1
 10
1.2390000000000001
 20
0.316
 30
0.0
  0
VERTEX
  5
54D
  8
1
 10
1.276
 20
0.316
 30
0.0
  0
VERTEX
  5
54E
  8
1
 10
1.276
 20
0.279
 30
0.0
  0
SEQEND
  5
54F
  8
1
  0
POLYLINE
  5
550
  8
1
 66
     1
 10
0.0
 20
0.0
 30
0.0
 70
     1
  0
VERTEX
  5
551
  8
1
 10
1.2390000000000001
 20
0.269
 30
0.0
  0
VERTEX
  5
552
  8
1
 10
1.2390000000000001
 20
0.276
 30
0.0
  0
VERTEX
  5
553
  8
1
 10
1.276
 20
0.276
 30
0.0
  0
VERTEX
  5
554
  8
1
 10
1.276
 20
0.269
 30
0.0
  0
SEQEND
  5
555
  8
1
  0
POLYLINE
  5
556
  8
1
 66
     1
 10
0.0
 20
0.0
 30
0.0
 70
     1
  0
VERTEX
  5
557
  8
1
 10
0.944
 20
0.366
 30
0.0
  0
VERTEX
  5
558
  8
1
 10
0.9609999999999999
 20
0.366
 30
0.0
  0
VERTEX
  5
559
  8
1
 10
0.9609999999999999
 20
0.319
 30
0.0
  0
VERTEX
  5
55A
  8
1
 10
0.8939999999999999
 20
0.319
 30
0.0
  0
VERTEX
  5
55B
  8
1
 10
0.8939999999999999
 20
0.336
 30
0.0
  0
VERTEX
  5
55C
  8
1
 10
0.944
 20
0.336
 30
0.0
  0
SEQEND
  5
55D
  8
1
  0
POLYLINE
  5
55E
  8
1
 66
     1
 10
0.0
 20
0.0
 30
0.0
 70
     1
  0
VERTEX
  5
55F
  8
1
 10
0.8449999999999999
 20
0.319
 30
0.0
  0
VERTEX
  5
560
  8
1
 10
0.8449999999999999
 20
0.324
 30
0.0
  0
VERTEX
  5
561
  8
1
 10
0.9099999999999999
 20
0.324
 30
0.0
  0
VERTEX
  5
562
  8
1
 10
0.9099999999999999
 20
0.319
 30
0.0
  0
SEQEND
  5
563
  8
1
  0
POLYLINE
  5
564
  8
1
 66
     1
 10
0.0
 20
0.0
 30
0.0
 70
     1
  0
VERTEX
  5
565
  8
1
 10
0.849
 20
0.279
 30
0.0
  0
VERTEX
  5
566
  8
1
 10
0.849
 20
0.316
 30
0.0
  0
VERTEX
  5
567
  8
1
 10
0.8859999999999999
 20
0.316
 30
0.0
  0
VERTEX
  5
568
  8
1
 10
0.8859999999999999
 20
0.279
 30
0.0
  0
SEQEND
  5
569
  8
1
  0
POLYLINE
  5
56A
  8
1
 66
     1
 10
0.0
 20
0.0
 30
0.0
 70
     1
  0
VERTEX
  5
56B
  8
1
 10
0.849
 20
0.269
 30
0.0
  0
VERTEX
  5
56C
  8
1
 10
0.849
 20
0.276
 30
0.0
  0
VERTEX
  5
56D
  8
1
 10
0.8859999999999999
 20
0.276
 30
0.0
  0
VERTEX
  5
56E
  8
1
 10
0.8859999999999999
 20
0.269
 30
0.0
  0
SEQEND
  5
56F
  8
1
  0
POLYLINE
  5
570
  8
1
 66
     1
 10
0.0
 20
0.0
 30
0.0
 70
     1
  0
VERTEX
  5
571
  8
1
 10
0.5990000000000001
 20
0.366
 30
0.0
  0
VERTEX
  5
572
  8
1
 10
0.6160000000000001
 20
0.366
 30
0.0
  0
VERTEX
  5
573
  8
1
 10
0.6160000000000001
 20
0.319
 30
0.0
  0
VERTEX
  5
574
  8
1
 10
0.5490000000000002
 20
0.319
 30
0.0
  0
VERTEX
  5
575
  8
1
 10
0.5490000000000002
 20
0.336
 30
0.0
  0
VERTEX
  5
576
  8
1
 10
0.5990000000000001
 20
0.336
 30
0.0
  0
SEQEND
  5
577
  8
1
  0
POLYLINE
  5
578
  8
1
 66
     1
 10
0.0
 20
0.0
 30
0.0
 70
     1
  0
VERTEX
  5
579
  8
1
 10
0.5
 20
0.319
 30
0.0
  0
VERTEX
  5
57A
  8
1
 10
0.5
 20
0.324
 30
0.0
  0
VERTEX
  5
57B
  8
1
 10
0.565
 20
0.324
 30
0.0
  0
VERTEX
  5
57C
  8
1
 10
0.565
 20
0.319
 30
0.0
  0
SEQEND
  5
57D
  8
1
  0
POLYLINE
  5
57E
  8
1
 66
     1
 10
0.0
 20
0.0
 30
0.0
 70
     1
  0
VERTEX
  5
57F
  8
1
 10
0.504
 20
0.279
 30
0.0
  0
VERTEX
  5
580
  8
1
 10
0.504
 20
0.316
 30
0.0
  0
VERTEX
  5
581
  8
1
 10
0.5410000000000002
 20
0.316
 30
0.0
  0
VERTEX
  5
582
  8
1
 10
0.5410000000000002
 20
0.279
 30
0.0
  0
SEQEND
  5
583
  8
1
  0
POLYLINE
  5
584
  8
1
 66
     1
 10
0.0
 20
0.0
 30
0.0
 70
     1
  0
VERTEX
  5
585
  8
1
 10
0.504
 20
0.269
 30
0.0
  0
VERTEX
  5
586
  8
1
 10
0.504
 20
0.276
 30
0.0
  0
VERTEX
  5
587
  8
1
 10
0.5410000000000002
 20
0.276
 30
0.0
  0
VERTEX
  5
588
  8
1
 10
0.5410000000000002
 20
0.269
 30
0.0
  0
SEQEND
  5
589
  8
1
  0
POLYLINE
  5
58A
  8
2
 66
     1
 10
0.0
 20
0.0
 30
0.0
 70
     1
  0
VERTEX
  5
58B
  8
2
 10
0.874
 20
0.574
 30
0.0
  0
VERTEX
  5
58C
  8
2
 10
0.874
 20
0.776
 30
0.0
  0
VERTEX
  5
58D
  8
2
 10
1.0760000000000001
 20
0.776
 30
0.0
  0
VERTEX
  5
58E
  8
2
 10
1.0760000000000001
 20
0.574
 30
0.0
  0
SEQEND
  5
58F
  8
2
  0
POLYLINE
  5
590
  8
2
 66
     1
 10
0.0
 20
0.0
 30
0.0
 70
     1
  0
VERTEX
  5
591
  8
2
 10
1.274
 20
0.574
 30
0.0
  0
VERTEX
  5
592
  8
2
 10
1.274
 20
0.776
 30
0.0
  0
VERTEX
  5
593
  8
2
 10
1.4759999999999991
 20
0.776
 30
0.0
  0
VERTEX
  5
594
  8
2
 10
1.4759999999999991
 20
0.574
 30
0.0
  0
SEQEND
  5
595
  8
2
  0
POLYLINE
  5
596
  8
1
 66
     1
 10
0.0
 20
0.0
 30
0.0
 70
     1
  0
VERTEX
  5
597
  8
1
 10
1.425999999999999
 20
0.509
 30
0.0
  0
VERTEX
  5
598
  8
1
 10
1.4089999999999989
 20
0.509
 30
0.0
  0
VERTEX
  5
599
  8
1
 10
1.4089999999999989
 20
0.5390000000000002
 30
0.0
  0
VERTEX
  5
59A
  8
1
 10
1.3589999999999991
 20
0.5390000000000002
 30
0.0
  0
VERTEX
  5
59B
  8
1
 10
1.3589999999999991
 20
0.5560000000000001
 30
0.0
  0
VERTEX
  5
59C
  8
1
 10
1.425999999999999
 20
0.5560000000000001
 30
0.0
  0
SEQEND
  5
59D
  8
1
  0
POLYLINE
  5
59E
  8
1
 66
     1
 10
0.0
 20
0.0
 30
0.0
 70
     1
  0
VERTEX
  5
59F
  8
1
 10
1.3100000000000001
 20
0.5510000000000001
 30
0.0
  0
VERTEX
  5
5A0
  8
1
 10
1.3100000000000001
 20
0.5560000000000001
 30
0.0
  0
VERTEX
  5
5A1
  8
1
 10
1.375
 20
0.5560000000000001
 30
0.0
  0
VERTEX
  5
5A2
  8
1
 10
1.375
 20
0.5510000000000001
 30
0.0
  0
SEQEND
  5
5A3
  8
1
  0
POLYLINE
  5
5A4
  8
1
 66
     1
 10
0.0
 20
0.0
 30
0.0
 70
     1
  0
VERTEX
  5
5A5
  8
1
 10
1.3140000000000001
 20
0.5590000000000001
 30
0.0
  0
VERTEX
  5
5A6
  8
1
 10
1.3140000000000001
 20
0.596
 30
0.0
  0
VERTEX
  5
5A7
  8
1
 10
1.3509999999999991
 20
0.596
 30
0.0
  0
VERTEX
  5
5A8
  8
1
 10
1.3509999999999991
 20
0.5590000000000001
 30
0.0
  0
SEQEND
  5
5A9
  8
1
  0
POLYLINE
  5
5AA
  8
1
 66
     1
 10
0.0
 20
0.0
 30
0.0
 70
     1
  0
VERTEX
  5
5AB
  8
1
 10
1.3140000000000001
 20
0.5990000000000001
 30
0.0
  0
VERTEX
  5
5AC
  8
1
 10
1.3140000000000001
 20
0.606
 30
0.0
  0
VERTEX
  5
5AD
  8
1
 10
1.3509999999999991
 20
0.606
 30
0.0
  0
VERTEX
  5
5AE
  8
1
 10
1.3509999999999991
 20
0.5990000000000001
 30
0.0
  0
SEQEND
  5
5AF
  8
1
  0
POLYLINE
  5
5B0
  8
1
 66
     1
 10
0.0
 20
0.0
 30
0.0
 70
     1
  0
VERTEX
  5
5B1
  8
1
 10
1.036
 20
0.509
 30
0.0
  0
VERTEX
  5
5B2
  8
1
 10
1.018999999999999
 20
0.509
 30
0.0
  0
VERTEX
  5
5B3
  8
1
 10
1.018999999999999
 20
0.5390000000000002
 30
0.0
  0
VERTEX
  5
5B4
  8
1
 10
0.9689999999999999
 20
0.5390000000000002
 30
0.0
  0
VERTEX
  5
5B5
  8
1
 10
0.9689999999999999
 20
0.5560000000000001
 30
0.0
  0
VERTEX
  5
5B6
  8
1
 10
1.036
 20
0.5560000000000001
 30
0.0
  0
SEQEND
  5
5B7
  8
1
  0
POLYLINE
  5
5B8
  8
1
 66
     1
 10
0.0
 20
0.0
 30
0.0
 70
     1
  0
VERTEX
  5
5B9
  8
1
 10
0.9200000000000002
 20
0.5510000000000001
 30
0.0
  0
VERTEX
  5
5BA
  8
1
 10
0.9200000000000002
 20
0.5560000000000001
 30
0.0
  0
VERTEX
  5
5BB
  8
1
 10
0.9849999999999999
 20
0.5560000000000001
 30
0.0
  0
VERTEX
  5
5BC
  8
1
 10
0.9849999999999999
 20
0.5510000000000001
 30
0.0
  0
SEQEND
  5
5BD
  8
1
  0
POLYLINE
  5
5BE
  8
1
 66
     1
 10
0.0
 20
0.0
 30
0.0
 70
     1
  0
VERTEX
  5
5BF
  8
1
 10
0.924
 20
0.5590000000000001
 30
0.0
  0
VERTEX
  5
5C0
  8
1
 10
0.924
 20
0.596
 30
0.0
  0
VERTEX
  5
5C1
  8
1
 10
0.9609999999999999
 20
0.596
 30
0.0
  0
VERTEX
  5
5C2
  8
1
 10
0.9609999999999999
 20
0.5590000000000001
 30
0.0
  0
SEQEND
  5
5C3
  8
1
  0
POLYLINE
  5
5C4
  8
1
 66
     1
 10
0.0
 20
0.0
 30
0.0
 70
     1
  0
VERTEX
  5
5C5
  8
1
 10
0.924
 20
0.5990000000000001
 30
0.0
  0
VERTEX
  5
5C6
  8
1
 10
0.924
 20
0.606
 30
0.0
  0
VERTEX
  5
5C7
  8
1
 10
0.9609999999999999
 20
0.606
 30
0.0
  0
VERTEX
  5
5C8
  8
1
 10
0.9609999999999999
 20
0.5990000000000001
 30
0.0
  0
SEQEND
  5
5C9
  8
1
  0
POLYLINE
  5
5CA
  8
1
 66
     1
 10
0.0
 20
0.0
 30
0.0
 70
     1
  0
VERTEX
  5
5CB
  8
1
 10
0.691
 20
0.509
 30
0.0
  0
VERTEX
  5
5CC
  8
1
 10
0.6740000000000002
 20
0.509
 30
0.0
  0
VERTEX
  5
5CD
  8
1
 10
0.6740000000000002
 20
0.5390000000000002
 30
0.0
  0
VERTEX
  5
5CE
  8
1
 10
0.6240000000000001
 20
0.5390000000000002
 30
0.0
  0
VERTEX
  5
5CF
  8
1
 10
0.6240000000000001
 20
0.5560000000000001
 30
0.0
  0
VERTEX
  5
5D0
  8
1
 10
0.691
 20
0.5560000000000001
 30
0.0
  0
SEQEND
  5
5D1
  8
1
  0
POLYLINE
  5
5D2
  8
1
 66
     1
 10
0.0
 20
0.0
 30
0.0
 70
     1
  0
VERTEX
  5
5D3
  8
1
 10
0.575
 20
0.5510000000000001
 30
0.0
  0
VERTEX
  5
5D4
  8
1
 10
0.575
 20
0.5560000000000001
 30
0.0
  0
VERTEX
  5
5D5
  8
1
 10
0.6400000000000001
 20
0.5560000000000001
 30
0.0
  0
VERTEX
  5
5D6
  8
1
 10
0.6400000000000001
 20
0.5510000000000001
 30
0.0
  0
SEQEND
  5
5D7
  8
1
  0
POLYLINE
  5
5D8
  8
1
 66
     1
 10
0.0
 20
0.0
 30
0.0
 70
     1
  0
VERTEX
  5
5D9
  8
1
 10
0.579
 20
0.5590000000000001
 30
0.0
  0
VERTEX
  5
5DA
  8
1
 10
0.579
 20
0.596
 30
0.0
  0
VERTEX
  5
5DB
  8
1
 10
0.6160000000000001
 20
0.596
 30
0.0
  0
VERTEX
  5
5DC
  8
1
 10
0.6160000000000001
 20
0.5590000000000001
 30
0.0
  0
SEQEND
  5
5DD
  8
1
  0
POLYLINE
  5
5DE
  8
1
 66
     1
 10
0.0
 20
0.0
 30
0.0
 70
     1
  0
VERTEX
  5
5DF
  8
1
 10
0.579
 20
0.5990000000000001
 30
0.0
  0
VERTEX
  5
5E0
  8
1
 10
0.579
 20
0.606
 30
0.0
  0
VERTEX
  5
5E1
  8
1
 10
0.6160000000000001
 20
0.606
 30
0.0
  0
VERTEX
  5
5E2
  8
1
 10
0.6160000000000001
 20
0.5990000000000001
 30
0.0
  0
SEQEND
  5
5E3
  8
1
  0
POLYLINE
  5
5E4
  8
1
 66
     1
 10
0.0
 20
0.0
 30
0.0
 70
     1
  0
VERTEX
  5
5E5
  8
1
 10
1.675999999999999
 20
0.289
 30
0.0
  0
VERTEX
  5
5E6
  8
1
 10
1.653999999999999
 20
0.289
 30
0.0
  0
VERTEX
  5
5E7
  8
1
 10
1.653999999999999
 20
0.4990000000000001
 30
0.0
  0
VERTEX
  5
5E8
  8
1
 10
0.6740000000000002
 20
0.4990000000000001
 30
0.0
  0
VERTEX
  5
5E9
  8
1
 10
0.6740000000000002
 20
0.521
 30
0.0
  0
VERTEX
  5
5EA
  8
1
 10
1.675999999999999
 20
0.521
 30
0.0
  0
SEQEND
  5
5EB
  8
1
  0
POLYLINE
  5
5EC
  8
1
 66
     1
 10
0.0
 20
0.0
 30
0.0
 70
     1
  0
VERTEX
  5
5ED
  8
1
 10
1.599
 20
-0.001
 30
0.0
  0
VERTEX
  5
5EE
  8
1
 10
1.599
 20
0.151
 30
0.0
  0
VERTEX
  5
5EF
  8
1
 10
1.6509999999999989
 20
0.151
 30
0.0
  0
VERTEX
  5
5F0
  8
1
 10
1.6509999999999989
 20
-0.001
 30
0.0
  0
SEQEND
  5
5F1
  8
1
  0
POLYLINE
  5
5F2
  8
1
 66
     1
 10
0.0
 20
0.0
 30
0.0
 70
     1
  0
VERTEX
  5
5F3
  8
1
 10
1.6990000000000001
 20
0.999
 30
0.0
  0
VERTEX
  5
5F4
  8
1
 10
1.6990000000000001
 20
1.050999999999999
 30
0.0
  0
VERTEX
  5
5F5
  8
1
 10
1.8509999999999991
 20
1.050999999999999
 30
0.0
  0
VERTEX
  5
5F6
  8
1
 10
1.8509999999999991
 20
0.999
 30
0.0
  0
SEQEND
  5
5F7
  8
1
  0
POLYLINE
  5
5F8
  8
2
 66
     1
 10
0.0
 20
0.0
 30
0.0
 70
     1
  0
VERTEX
  5
5F9
  8
2
 10
0.874
 20
0.944
 30
0.0
  0
VERTEX
  5
5FA
  8
2
 10
0.874
 20
1.145999999999999
 30
0.0
  0
VERTEX
  5
5FB
  8
2
 10
1.0760000000000001
 20
1.145999999999999
 30
0.0
  0
VERTEX
  5
5FC
  8
2
 10
1.0760000000000001
 20
0.944
 30
0.0
  0
SEQEND
  5
5FD
  8
2
  0
POLYLINE
  5
5FE
  8
2
 66
     1
 10
0.0
 20
0.0
 30
0.0
 70
     1
  0
VERTEX
  5
5FF
  8
2
 10
1.274
 20
0.944
 30
0.0
  0
VERTEX
  5
600
  8
2
 10
1.274
 20
1.145999999999999
 30
0.0
  0
VERTEX
  5
601
  8
2
 10
1.4759999999999991
 20
1.145999999999999
 30
0.0
  0
VERTEX
  5
602
  8
2
 10
1.4759999999999991
 20
0.944
 30
0.0
  0
SEQEND
  5
603
  8
2
  0
POLYLINE
  5
604
  8
1
 66
     1
 10
0.0
 20
0.0
 30
0.0
 70
     1
  0
VERTEX
  5
605
  8
1
 10
1.425999999999999
 20
0.8789999999999999
 30
0.0
  0
VERTEX
  5
606
  8
1
 10
1.4089999999999989
 20
0.8789999999999999
 30
0.0
  0
VERTEX
  5
607
  8
1
 10
1.4089999999999989
 20
0.9089999999999999
 30
0.0
  0
VERTEX
  5
608
  8
1
 10
1.3589999999999991
 20
0.9089999999999999
 30
0.0
  0
VERTEX
  5
609
  8
1
 10
1.3589999999999991
 20
0.9259999999999999
 30
0.0
  0
VERTEX
  5
60A
  8
1
 10
1.425999999999999
 20
0.9259999999999999
 30
0.0
  0
SEQEND
  5
60B
  8
1
  0
POLYLINE
  5
60C
  8
1
 66
     1
 10
0.0
 20
0.0
 30
0.0
 70
     1
  0
VERTEX
  5
60D
  8
1
 10
1.3100000000000001
 20
0.921
 30
0.0
  0
VERTEX
  5
60E
  8
1
 10
1.3100000000000001
 20
0.9259999999999999
 30
0.0
  0
VERTEX
  5
60F
  8
1
 10
1.375
 20
0.9259999999999999
 30
0.0
  0
VERTEX
  5
610
  8
1
 10
1.375
 20
0.921
 30
0.0
  0
SEQEND
  5
611
  8
1
  0
POLYLINE
  5
612
  8
1
 66
     1
 10
0.0
 20
0.0
 30
0.0
 70
     1
  0
VERTEX
  5
613
  8
1
 10
1.3140000000000001
 20
0.9290000000000001
 30
0.0
  0
VERTEX
  5
614
  8
1
 10
1.3140000000000001
 20
0.966
 30
0.0
  0
VERTEX
  5
615
  8
1
 10
1.3509999999999991
 20
0.966
 30
0.0
  0
VERTEX
  5
616
  8
1
 10
1.3509999999999991
 20
0.9290000000000001
 30
0.0
  0
SEQEND
  5
617
  8
1
  0
POLYLINE
  5
618
  8
1
 66
     1
 10
0.0
 20
0.0
 30
0.0
 70
     1
  0
VERTEX
  5
619
  8
1
 10
1.3140000000000001
 20
0.9689999999999999
 30
0.0
  0
VERTEX
  5
61A
  8
1
 10
1.3140000000000001
 20
0.9759999999999999
 30
0.0
  0
VERTEX
  5
61B
  8
1
 10
1.3509999999999991
 20
0.9759999999999999
 30
0.0
  0
VERTEX
  5
61C
  8
1
 10
1.3509999999999991
 20
0.9689999999999999
 30
0.0
  0
SEQEND
  5
61D
  8
1
  0
POLYLINE
  5
61E
  8
1
 66
     1
 10
0.0
 20
0.0
 30
0.0
 70
     1
  0
VERTEX
  5
61F
  8
1
 10
1.036
 20
0.8789999999999999
 30
0.0
  0
VERTEX
  5
620
  8
1
 10
1.018999999999999
 20
0.8789999999999999
 30
0.0
  0
VERTEX
  5
621
  8
1
 10
1.018999999999999
 20
0.9089999999999999
 30
0.0
  0
VERTEX
  5
622
  8
1
 10
0.9689999999999999
 20
0.9089999999999999
 30
0.0
  0
VERTEX
  5
623
  8
1
 10
0.9689999999999999
 20
0.9259999999999999
 30
0.0
  0
VERTEX
  5
624
  8
1
 10
1.036
 20
0.9259999999999999
 30
0.0
  0
SEQEND
  5
625
  8
1
  0
POLYLINE
  5
626
  8
1
 66
     1
 10
0.0
 20
0.0
 30
0.0
 70
     1
  0
VERTEX
  5
627
  8
1
 10
0.9200000000000002
 20
0.921
 30
0.0
  0
VERTEX
  5
628
  8
1
 10
0.9200000000000002
 20
0.9259999999999999
 30
0.0
  0
VERTEX
  5
629
  8
1
 10
0.9849999999999999
 20
0.9259999999999999
 30
0.0
  0
VERTEX
  5
62A
  8
1
 10
0.9849999999999999
 20
0.921
 30
0.0
  0
SEQEND
  5
62B
  8
1
  0
POLYLINE
  5
62C
  8
1
 66
     1
 10
0.0
 20
0.0
 30
0.0
 70
     1
  0
VERTEX
  5
62D
  8
1
 10
0.924
 20
0.9290000000000001
 30
0.0
  0
VERTEX
  5
62E
  8
1
 10
0.924
 20
0.966
 30
0.0
  0
VERTEX
  5
62F
  8
1
 10
0.9609999999999999
 20
0.966
 30
0.0
  0
VERTEX
  5
630
  8
1
 10
0.9609999999999999
 20
0.9290000000000001
 30
0.0
  0
SEQEND
  5
631
  8
1
  0
POLYLINE
  5
632
  8
1
 66
     1
 10
0.0
 20
0.0
 30
0.0
 70
     1
  0
VERTEX
  5
633
  8
1
 10
0.924
 20
0.9689999999999999
 30
0.0
  0
VERTEX
  5
634
  8
1
 10
0.924
 20
0.9759999999999999
 30
0.0
  0
VERTEX
  5
635
  8
1
 10
0.9609999999999999
 20
0.9759999999999999
 30
0.0
  0
VERTEX
  5
636
  8
1
 10
0.9609999999999999
 20
0.9689999999999999
 30
0.0
  0
SEQEND
  5
637
  8
1
  0
POLYLINE
  5
638
  8
1
 66
     1
 10
0.0
 20
0.0
 30
0.0
 70
     1
  0
VERTEX
  5
639
  8
1
 10
0.691
 20
0.8789999999999999
 30
0.0
  0
VERTEX
  5
63A
  8
1
 10
0.6740000000000002
 20
0.8789999999999999
 30
0.0
  0
VERTEX
  5
63B
  8
1
 10
0.6740000000000002
 20
0.9089999999999999
 30
0.0
  0
VERTEX
  5
63C
  8
1
 10
0.6240000000000001
 20
0.9089999999999999
 30
0.0
  0
VERTEX
  5
63D
  8
1
 10
0.6240000000000001
 20
0.9259999999999999
 30
0.0
  0
VERTEX
  5
63E
  8
1
 10
0.691
 20
0.9259999999999999
 30
0.0
  0
SEQEND
  5
63F
  8
1
  0
POLYLINE
  5
640
  8
1
 66
     1
 10
0.0
 20
0.0
 30
0.0
 70
     1
  0
VERTEX
  5
641
  8
1
 10
0.575
 20
0.921
 30
0.0
  0
VERTEX
  5
642
  8
1
 10
0.575
 20
0.9259999999999999
 30
0.0
  0
VERTEX
  5
643
  8
1
 10
0.6400000000000001
 20
0.9259999999999999
 30
0.0
  0
VERTEX
  5
644
  8
1
 10
0.6400000000000001
 20
0.921
 30
0.0
  0
SEQEND
  5
645
  8
1
  0
POLYLINE
  5
646
  8
1
 66
     1
 10
0.0
 20
0.0
 30
0.0
 70
     1
  0
VERTEX
  5
647
  8
1
 10
0.579
 20
0.9290000000000001
 30
0.0
  0
VERTEX
  5
648
  8
1
 10
0.579
 20
0.966
 30
0.0
  0
VERTEX
  5
649
  8
1
 10
0.6160000000000001
 20
0.966
 30
0.0
  0
VERTEX
  5
64A
  8
1
 10
0.6160000000000001
 20
0.9290000000000001
 30
0.0
  0
SEQEND
  5
64B
  8
1
  0
POLYLINE
  5
64C
  8
1
 66
     1
 10
0.0
 20
0.0
 30
0.0
 70
     1
  0
VERTEX
  5
64D
  8
1
 10
0.579
 20
0.9689999999999999
 30
0.0
  0
VERTEX
  5
64E
  8
1
 10
0.579
 20
0.9759999999999999
 30
0.0
  0
VERTEX
  5
64F
  8
1
 10
0.6160000000000001
 20
0.9759999999999999
 30
0.0
  0
VERTEX
  5
650
  8
1
 10
0.6160000000000001
 20
0.9689999999999999
 30
0.0
  0
SEQEND
  5
651
  8
1
  0
POLYLINE
  5
652
  8
1
 66
     1
 10
0.0
 20
0.0
 30
0.0
 70
     1
  0
VERTEX
  5
653
  8
1
 10
1.548999999999999
 20
0.9109999999999999
 30
0.0
  0
VERTEX
  5
654
  8
1
 10
1.5709999999999991
 20
0.9109999999999999
 30
0.0
  0
VERTEX
  5
655
  8
1
 10
1.5709999999999991
 20
0.8689999999999999
 30
0.0
  0
VERTEX
  5
656
  8
1
 10
0.6740000000000002
 20
0.8689999999999999
 30
0.0
  0
VERTEX
  5
657
  8
1
 10
0.6740000000000002
 20
0.891
 30
0.0
  0
VERTEX
  5
658
  8
1
 10
1.548999999999999
 20
0.891
 30
0.0
  0
SEQEND
  5
659
  8
1
  0
POLYLINE
  5
65A
  8
2
 66
     1
 10
0.0
 20
0.0
 30
0.0
 70
     1
  0
VERTEX
  5
65B
  8
2
 10
1.4510000000000001
 20
2.198999999999999
 30
0.0
  0
VERTEX
  5
65C
  8
2
 10
1.4009999999999989
 20
2.198999999999999
 30
0.0
  0
VERTEX
  5
65D
  8
2
 10
1.4009999999999989
 20
1.9990000000000001
 30
0.0
  0
VERTEX
  5
65E
  8
2
 10
1.298999999999999
 20
1.9990000000000001
 30
0.0
  0
VERTEX
  5
65F
  8
2
 10
1.298999999999999
 20
2.198999999999999
 30
0.0
  0
VERTEX
  5
660
  8
2
 10
1.2490000000000001
 20
2.198999999999999
 30
0.0
  0
VERTEX
  5
661
  8
2
 10
1.2490000000000001
 20
2.4009999999999989
 30
0.0
  0
VERTEX
  5
662
  8
2
 10
1.4510000000000001
 20
2.4009999999999989
 30
0.0
  0
SEQEND
  5
663
  8
2
  0
POLYLINE
  5
664
  8
3
 66
     1
 10
0.0
 20
0.0
 30
0.0
 70
     1
  0
VERTEX
  5
665
  8
3
 10
0.9009999999999999
 20
1.899
 30
0.0
  0
VERTEX
  5
666
  8
3
 10
0.699
 20
1.899
 30
0.0
  0
VERTEX
  5
667
  8
3
 10
0.699
 20
2.198999999999999
 30
0.0
  0
VERTEX
  5
668
  8
3
 10
0.099
 20
2.198999999999999
 30
0.0
  0
VERTEX
  5
669
  8
3
 10
0.099
 20
2.4009999999999989
 30
0.0
  0
VERTEX
  5
66A
  8
3
 10
0.9009999999999999
 20
2.4009999999999989
 30
0.0
  0
SEQEND
  5
66B
  8
3
  0
POLYLINE
  5
66C
  8
1
 66
     1
 10
0.0
 20
0.0
 30
0.0
 70
     1
  0
VERTEX
  5
66D
  8
1
 10
0.949
 20
2.4009999999999989
 30
0.0
  0
VERTEX
  5
66E
  8
1
 10
1.2010000000000001
 20
2.4009999999999989
 30
0.0
  0
VERTEX
  5
66F
  8
1
 10
1.2010000000000001
 20
2.1509999999999989
 30
0.0
  0
VERTEX
  5
670
  8
1
 10
1.4510000000000001
 20
2.1509999999999989
 30
0.0
  0
VERTEX
  5
671
  8
1
 10
1.4510000000000001
 20
2.048999999999999
 30
0.0
  0
VERTEX
  5
672
  8
1
 10
1.2010000000000001
 20
2.048999999999999
 30
0.0
  0
VERTEX
  5
673
  8
1
 10
1.2010000000000001
 20
1.7490000000000001
 30
0.0
  0
VERTEX
  5
674
  8
1
 10
0.949
 20
1.7490000000000001
 30
0.0
  0
VERTEX
  5
675
  8
1
 10
0.949
 20
1.9490000000000001
 30
0.0
  0
VERTEX
  5
676
  8
1
 10
0.6490000000000001
 20
1.9490000000000001
 30
0.0
  0
VERTEX
  5
677
  8
1
 10
0.6490000000000001
 20
2.1509999999999989
 30
0.0
  0
VERTEX
  5
678
  8
1
 10
0.949
 20
2.1509999999999989
 30
0.0
  0
SEQEND
  5
679
  8
1
  0
POLYLINE
  5
67A
  8
1
 66
     1
 10
0.0
 20
0.0
 30
0.0
 70
     1
  0
VERTEX
  5
67B
  8
1
 10
1.294
 20
1.7010000000000001
 30
0.0
  0
VERTEX
  5
67C
  8
1
 10
1.381
 20
1.7010000000000001
 30
0.0
  0
VERTEX
  5
67D
  8
1
 10
1.381
 20
1.6959999999999991
 30
0.0
  0
VERTEX
  5
67E
  8
1
 10
1.298999999999999
 20
1.6959999999999991
 30
0.0
  0
VERTEX
  5
67F
  8
1
 10
1.298999999999999
 20
1.425999999999999
 30
0.0
  0
VERTEX
  5
680
  8
1
 10
1.1890000000000001
 20
1.425999999999999
 30
0.0
  0
VERTEX
  5
681
  8
1
 10
1.1890000000000001
 20
1.431
 30
0.0
  0
VERTEX
  5
682
  8
1
 10
1.294
 20
1.431
 30
0.0
  0
SEQEND
  5
683
  8
1
  0
POLYLINE
  5
684
  8
1
 66
     1
 10
0.0
 20
0.0
 30
0.0
 70
     1
  0
VERTEX
  5
685
  8
1
 10
1.4790000000000001
 20
1.7010000000000001
 30
0.0
  0
VERTEX
  5
686
  8
1
 10
1.4839999999999991
 20
1.7010000000000001
 30
0.0
  0
VERTEX
  5
687
  8
1
 10
1.4839999999999991
 20
1.425999999999999
 30
0.0
  0
VERTEX
  5
688
  8
1
 10
1.294
 20
1.425999999999999
 30
0.0
  0
VERTEX
  5
689
  8
1
 10
1.294
 20
1.431
 30
0.0
  0
VERTEX
  5
68A
  8
1
 10
1.4790000000000001
 20
1.431
 30
0.0
  0
SEQEND
  5
68B
  8
1
  0
POLYLINE
  5
68C
  8
3
 66
     1
 10
0.0
 20
0.0
 30
0.0
 70
     1
  0
VERTEX
  5
68D
  8
3
 10
1.3200000000000001
 20
1.4950000000000001
 30
0.0
  0
VERTEX
  5
68E
  8
3
 10
1.3549999999999991
 20
1.4950000000000001
 30
0.0
  0
VERTEX
  5
68F
  8
3
 10
1.3549999999999991
 20
1.7250000000000001
 30
0.0
  0
VERTEX
  5
690
  8
3
 10
1.5099999999999989
 20
1.7250000000000001
 30
0.0
  0
VERTEX
  5
691
  8
3
 10
1.5099999999999989
 20
1.6850000000000001
 30
0.0
  0
VERTEX
  5
692
  8
3
 10
1.405
 20
1.6850000000000001
 30
0.0
  0
VERTEX
  5
693
  8
3
 10
1.405
 20
1.669999999999999
 30
0.0
  0
VERTEX
  5
694
  8
3
 10
1.5099999999999989
 20
1.669999999999999
 30
0.0
  0
VERTEX
  5
695
  8
3
 10
1.5099999999999989
 20
1.645
 30
0.0
  0
VERTEX
  5
696
  8
3
 10
1.405
 20
1.645
 30
0.0
  0
VERTEX
  5
697
  8
3
 10
1.405
 20
1.629999999999999
 30
0.0
  0
VERTEX
  5
698
  8
3
 10
1.5099999999999989
 20
1.629999999999999
 30
0.0
  0
VERTEX
  5
699
  8
3
 10
1.5099999999999989
 20
1.6049999999999991
 30
0.0
  0
VERTEX
  5
69A
  8
3
 10
1.405
 20
1.6049999999999991
 30
0.0
  0
VERTEX
  5
69B
  8
3
 10
1.405
 20
1.5900000000000001
 30
0.0
  0
VERTEX
  5
69C
  8
3
 10
1.5099999999999989
 20
1.5900000000000001
 30
0.0
  0
VERTEX
  5
69D
  8
3
 10
1.5099999999999989
 20
1.5649999999999991
 30
0.0
  0
VERTEX
  5
69E
  8
3
 10
1.405
 20
1.5649999999999991
 30
0.0
  0
VERTEX
  5
69F
  8
3
 10
1.405
 20
1.55
 30
0.0
  0
VERTEX
  5
6A0
  8
3
 10
1.5099999999999989
 20
1.55
 30
0.0
  0
VERTEX
  5
6A1
  8
3
 10
1.5099999999999989
 20
1.524999999999999
 30
0.0
  0
VERTEX
  5
6A2
  8
3
 10
1.405
 20
1.524999999999999
 30
0.0
  0
VERTEX
  5
6A3
  8
3
 10
1.405
 20
1.5099999999999989
 30
0.0
  0
VERTEX
  5
6A4
  8
3
 10
1.524999999999999
 20
1.5099999999999989
 30
0.0
  0
VERTEX
  5
6A5
  8
3
 10
1.524999999999999
 20
1.625
 30
0.0
  0
VERTEX
  5
6A6
  8
3
 10
1.5649999999999991
 20
1.625
 30
0.0
  0
VERTEX
  5
6A7
  8
3
 10
1.5649999999999991
 20
1.6200000000000001
 30
0.0
  0
VERTEX
  5
6A8
  8
3
 10
1.53
 20
1.6200000000000001
 30
0.0
  0
VERTEX
  5
6A9
  8
3
 10
1.53
 20
1.504999999999999
 30
0.0
  0
VERTEX
  5
6AA
  8
3
 10
1.399999999999999
 20
1.504999999999999
 30
0.0
  0
VERTEX
  5
6AB
  8
3
 10
1.399999999999999
 20
1.53
 30
0.0
  0
VERTEX
  5
6AC
  8
3
 10
1.504999999999999
 20
1.53
 30
0.0
  0
VERTEX
  5
6AD
  8
3
 10
1.504999999999999
 20
1.544999999999999
 30
0.0
  0
VERTEX
  5
6AE
  8
3
 10
1.399999999999999
 20
1.544999999999999
 30
0.0
  0
VERTEX
  5
6AF
  8
3
 10
1.399999999999999
 20
1.5700000000000001
 30
0.0
  0
VERTEX
  5
6B0
  8
3
 10
1.504999999999999
 20
1.5700000000000001
 30
0.0
  0
VERTEX
  5
6B1
  8
3
 10
1.504999999999999
 20
1.5849999999999991
 30
0.0
  0
VERTEX
  5
6B2
  8
3
 10
1.399999999999999
 20
1.5849999999999991
 30
0.0
  0
VERTEX
  5
6B3
  8
3
 10
1.399999999999999
 20
1.6100000000000001
 30
0.0
  0
VERTEX
  5
6B4
  8
3
 10
1.504999999999999
 20
1.6100000000000001
 30
0.0
  0
VERTEX
  5
6B5
  8
3
 10
1.504999999999999
 20
1.625
 30
0.0
  0
VERTEX
  5
6B6
  8
3
 10
1.399999999999999
 20
1.625
 30
0.0
  0
VERTEX
  5
6B7
  8
3
 10
1.399999999999999
 20
1.649999999999999
 30
0.0
  0
VERTEX
  5
6B8
  8
3
 10
1.504999999999999
 20
1.649999999999999
 30
0.0
  0
VERTEX
  5
6B9
  8
3
 10
1.504999999999999
 20
1.665
 30
0.0
  0
VERTEX
  5
6BA
  8
3
 10
1.399999999999999
 20
1.665
 30
0.0
  0
VERTEX
  5
6BB
  8
3
 10
1.399999999999999
 20
1.6899999999999991
 30
0.0
  0
VERTEX
  5
6BC
  8
3
 10
1.504999999999999
 20
1.6899999999999991
 30
0.0
  0
VERTEX
  5
6BD
  8
3
 10
1.504999999999999
 20
1.7199999999999991
 30
0.0
  0
VERTEX
  5
6BE
  8
3
 10
1.3600000000000001
 20
1.7199999999999991
 30
0.0
  0
VERTEX
  5
6BF
  8
3
 10
1.3600000000000001
 20
1.49
 30
0.0
  0
VERTEX
  5
6C0
  8
3
 10
1.3149999999999991
 20
1.49
 30
0.0
  0
VERTEX
  5
6C1
  8
3
 10
1.3149999999999991
 20
1.764999999999999
 30
0.0
  0
VERTEX
  5
6C2
  8
3
 10
1.3200000000000001
 20
1.764999999999999
 30
0.0
  0
SEQEND
  5
6C3
  8
3
  0
POLYLINE
  5
6C4
  8
3
 66
     1
 10
0.0
 20
0.0
 30
0.0
 70
     1
  0
VERTEX
  5
6C5
  8
3
 10
0.399
 20
1.4759999999999991
 30
0.0
  0
VERTEX
  5
6C6
  8
3
 10
0.4410000000000001
 20
1.4759999999999991
 30
0.0
  0
VERTEX
  5
6C7
  8
3
 10
0.4410000000000001
 20
0.5590000000000001
 30
0.0
  0
VERTEX
  5
6C8
  8
3
 10
0.284
 20
0.5590000000000001
 30
0.0
  0
VERTEX
  5
6C9
  8
3
 10
0.284
 20
0.601
 30
0.0
  0
VERTEX
  5
6CA
  8
3
 10
0.399
 20
0.601
 30
0.0
  0
SEQEND
  5
6CB
  8
3
  0
POLYLINE
  5
6CC
  8
3
 66
     1
 10
0.0
 20
0.0
 30
0.0
 70
     1
  0
VERTEX
  5
6CD
  8
3
 10
0.475
 20
1.254999999999999
 30
0.0
  0
VERTEX
  5
6CE
  8
3
 10
1.5649999999999991
 20
1.254999999999999
 30
0.0
  0
VERTEX
  5
6CF
  8
3
 10
1.5649999999999991
 20
1.25
 30
0.0
  0
VERTEX
  5
6D0
  8
3
 10
0.48
 20
1.25
 30
0.0
  0
VERTEX
  5
6D1
  8
3
 10
0.48
 20
0.5
 30
0.0
  0
VERTEX
  5
6D2
  8
3
 10
0.285
 20
0.5
 30
0.0
  0
VERTEX
  5
6D3
  8
3
 10
0.285
 20
0.505
 30
0.0
  0
VERTEX
  5
6D4
  8
3
 10
0.475
 20
0.505
 30
0.0
  0
SEQEND
  5
6D5
  8
3
  0
POLYLINE
  5
6D6
  8
3
 66
     1
 10
0.0
 20
0.0
 30
0.0
 70
     1
  0
VERTEX
  5
6D7
  8
3
 10
1.254999999999999
 20
0.334
 30
0.0
  0
VERTEX
  5
6D8
  8
3
 10
1.26
 20
0.334
 30
0.0
  0
VERTEX
  5
6D9
  8
3
 10
1.26
 20
0.304
 30
0.0
  0
VERTEX
  5
6DA
  8
3
 10
1.27
 20
0.304
 30
0.0
  0
VERTEX
  5
6DB
  8
3
 10
1.27
 20
0.269
 30
0.0
  0
VERTEX
  5
6DC
  8
3
 10
1.2450000000000001
 20
0.269
 30
0.0
  0
VERTEX
  5
6DD
  8
3
 10
1.2450000000000001
 20
0.304
 30
0.0
  0
VERTEX
  5
6DE
  8
3
 10
1.254999999999999
 20
0.304
 30
0.0
  0
SEQEND
  5
6DF
  8
3
  0
POLYLINE
  5
6E0
  8
3
 66
     1
 10
0.0
 20
0.0
 30
0.0
 70
     1
  0
VERTEX
  5
6E1
  8
3
 10
0.865
 20
0.334
 30
0.0
  0
VERTEX
  5
6E2
  8
3
 10
0.8699999999999999
 20
0.334
 30
0.0
  0
VERTEX
  5
6E3
  8
3
 10
0.8699999999999999
 20
0.304
 30
0.0
  0
VERTEX
  5
6E4
  8
3
 10
0.88
 20
0.304
 30
0.0
  0
VERTEX
  5
6E5
  8
3
 10
0.88
 20
0.269
 30
0.0
  0
VERTEX
  5
6E6
  8
3
 10
0.855
 20
0.269
 30
0.0
  0
VERTEX
  5
6E7
  8
3
 10
0.855
 20
0.304
 30
0.0
  0
VERTEX
  5
6E8
  8
3
 10
0.865
 20
0.304
 30
0.0
  0
SEQEND
  5
6E9
  8
3
  0
POLYLINE
  5
6EA
  8
1
 66
     1
 10
0.0
 20
0.0
 30
0.0
 70
     1
  0
VERTEX
  5
6EB
  8
1
 10
1.8509999999999991
 20
-0.001
 30
0.0
  0
VERTEX
  5
6EC
  8
1
 10
0.099
 20
-0.001
 30
0.0
  0
VERTEX
  5
6ED
  8
1
 10
0.099
 20
0.051
 30
0.0
  0
VERTEX
  5
6EE
  8
1
 10
1.798999999999999
 20
0.051
 30
0.0
  0
VERTEX
  5
6EF
  8
1
 10
1.798999999999999
 20
2.448999999999999
 30
0.0
  0
VERTEX
  5
6F0
  8
1
 10
0.051
 20
2.448999999999999
 30
0.0
  0
VERTEX
  5
6F1
  8
1
 10
0.051
 20
-0.001
 30
0.0
  0
VERTEX
  5
6F2
  8
1
 10
-0.001
 20
-0.001
 30
0.0
  0
VERTEX
  5
6F3
  8
1
 10
-0.001
 20
2.500999999999999
 30
0.0
  0
VERTEX
  5
6F4
  8
1
 10
1.8509999999999991
 20
2.500999999999999
 30
0.0
  0
SEQEND
  5
6F5
  8
1
  0
POLYLINE
  5
6F6
  8
3
 66
     1
 10
0.0
 20
0.0
 30
0.0
 70
     1
  0
VERTEX
  5
6F7
  8
3
 10
1.3449999999999991
 20
0.571
 30
0.0
  0
VERTEX
  5
6F8
  8
3
 10
1.3349999999999991
 20
0.571
 30
0.0
  0
VERTEX
  5
6F9
  8
3
 10
1.3349999999999991
 20
0.5410000000000002
 30
0.0
  0
VERTEX
  5
6FA
  8
3
 10
1.3300000000000001
 20
0.5410000000000002
 30
0.0
  0
VERTEX
  5
6FB
  8
3
 10
1.3300000000000001
 20
0.571
 30
0.0
  0
VERTEX
  5
6FC
  8
3
 10
1.3200000000000001
 20
0.571
 30
0.0
  0
VERTEX
  5
6FD
  8
3
 10
1.3200000000000001
 20
0.606
 30
0.0
  0
VERTEX
  5
6FE
  8
3
 10
1.3449999999999991
 20
0.606
 30
0.0
  0
SEQEND
  5
6FF
  8
3
  0
POLYLINE
  5
700
  8
3
 66
     1
 10
0.0
 20
0.0
 30
0.0
 70
     1
  0
VERTEX
  5
701
  8
3
 10
0.9549999999999999
 20
0.571
 30
0.0
  0
VERTEX
  5
702
  8
3
 10
0.945
 20
0.571
 30
0.0
  0
VERTEX
  5
703
  8
3
 10
0.945
 20
0.5410000000000002
 30
0.0
  0
VERTEX
  5
704
  8
3
 10
0.9399999999999998
 20
0.5410000000000002
 30
0.0
  0
VERTEX
  5
705
  8
3
 10
0.9399999999999998
 20
0.571
 30
0.0
  0
VERTEX
  5
706
  8
3
 10
0.9300000000000001
 20
0.571
 30
0.0
  0
VERTEX
  5
707
  8
3
 10
0.9300000000000001
 20
0.606
 30
0.0
  0
VERTEX
  5
708
  8
3
 10
0.9549999999999999
 20
0.606
 30
0.0
  0
SEQEND
  5
709
  8
3
  0
POLYLINE
  5
70A
  8
3
 66
     1
 10
0.0
 20
0.0
 30
0.0
 70
     1
  0
VERTEX
  5
70B
  8
3
 10
1.3449999999999991
 20
0.941
 30
0.0
  0
VERTEX
  5
70C
  8
3
 10
1.3349999999999991
 20
0.941
 30
0.0
  0
VERTEX
  5
70D
  8
3
 10
1.3349999999999991
 20
0.9109999999999999
 30
0.0
  0
VERTEX
  5
70E
  8
3
 10
1.3300000000000001
 20
0.9109999999999999
 30
0.0
  0
VERTEX
  5
70F
  8
3
 10
1.3300000000000001
 20
0.941
 30
0.0
  0
VERTEX
  5
710
  8
3
 10
1.3200000000000001
 20
0.941
 30
0.0
  0
VERTEX
  5
711
  8
3
 10
1.3200000000000001
 20
0.9759999999999999
 30
0.0
  0
VERTEX
  5
712
  8
3
 10
1.3449999999999991
 20
0.9759999999999999
 30
0.0
  0
SEQEND
  5
713
  8
3
  0
POLYLINE
  5
714
  8
3
 66
     1
 10
0.0
 20
0.0
 30
0.0
 70
     1
  0
VERTEX
  5
715
  8
3
 10
0.9549999999999999
 20
0.941
 30
0.0
  0
VERTEX
  5
716
  8
3
 10
0.945
 20
0.941
 30
0.0
  0
VERTEX
  5
717
  8
3
 10
0.945
 20
0.9109999999999999
 30
0.0
  0
VERTEX
  5
718
  8
3
 10
0.9399999999999998
 20
0.9109999999999999
 30
0.0
  0
VERTEX
  5
719
  8
3
 10
0.9399999999999998
 20
0.941
 30
0.0
  0
VERTEX
  5
71A
  8
3
 10
0.9300000000000001
 20
0.941
 30
0.0
  0
VERTEX
  5
71B
  8
3
 10
0.9300000000000001
 20
0.9759999999999999
 30
0.0
  0
VERTEX
  5
71C
  8
3
 10
0.9549999999999999
 20
0.9759999999999999
 30
0.0
  0
SEQEND
  5
71D
  8
3
  0
POLYLINE
  5
71E
  8
3
 66
     1
 10
0.0
 20
0.0
 30
0.0
 70
     1
  0
VERTEX
  5
71F
  8
3
 10
0.726
 20
0.944
 30
0.0
  0
VERTEX
  5
720
  8
3
 10
0.61
 20
0.944
 30
0.0
  0
VERTEX
  5
721
  8
3
 10
0.61
 20
0.941
 30
0.0
  0
VERTEX
  5
722
  8
3
 10
0.6
 20
0.941
 30
0.0
  0
VERTEX
  5
723
  8
3
 10
0.6
 20
0.9109999999999999
 30
0.0
  0
VERTEX
  5
724
  8
3
 10
0.595
 20
0.9109999999999999
 30
0.0
  0
VERTEX
  5
725
  8
3
 10
0.595
 20
0.941
 30
0.0
  0
VERTEX
  5
726
  8
3
 10
0.585
 20
0.941
 30
0.0
  0
VERTEX
  5
727
  8
3
 10
0.585
 20
0.944
 30
0.0
  0
VERTEX
  5
728
  8
3
 10
0.5240000000000001
 20
0.944
 30
0.0
  0
VERTEX
  5
729
  8
3
 10
0.5240000000000001
 20
1.145999999999999
 30
0.0
  0
VERTEX
  5
72A
  8
3
 10
0.726
 20
1.145999999999999
 30
0.0
  0
SEQEND
  5
72B
  8
3
  0
POLYLINE
  5
72C
  8
3
 66
     1
 10
0.0
 20
0.0
 30
0.0
 70
     1
  0
VERTEX
  5
72D
  8
3
 10
0.726
 20
0.574
 30
0.0
  0
VERTEX
  5
72E
  8
3
 10
0.61
 20
0.574
 30
0.0
  0
VERTEX
  5
72F
  8
3
 10
0.61
 20
0.571
 30
0.0
  0
VERTEX
  5
730
  8
3
 10
0.6
 20
0.571
 30
0.0
  0
VERTEX
  5
731
  8
3
 10
0.6
 20
0.5410000000000002
 30
0.0
  0
VERTEX
  5
732
  8
3
 10
0.595
 20
0.5410000000000002
 30
0.0
  0
VERTEX
  5
733
  8
3
 10
0.595
 20
0.571
 30
0.0
  0
VERTEX
  5
734
  8
3
 10
0.585
 20
0.571
 30
0.0
  0
VERTEX
  5
735
  8
3
 10
0.585
 20
0.574
 30
0.0
  0
VERTEX
  5
736
  8
3
 10
0.5240000000000001
 20
0.574
 30
0.0
  0
VERTEX
  5
737
  8
3
 10
0.5240000000000001
 20
0.776
 30
0.0
  0
VERTEX
  5
738
  8
3
 10
0.726
 20
0.776
 30
0.0
  0
SEQEND
  5
739
  8
3
  0
POLYLINE
  5
73A
  8
3
 66
     1
 10
0.0
 20
0.0
 30
0.0
 70
     1
  0
VERTEX
  5
73B
  8
3
 10
0.51
 20
0.304
 30
0.0
  0
VERTEX
  5
73C
  8
3
 10
0.5200000000000001
 20
0.304
 30
0.0
  0
VERTEX
  5
73D
  8
3
 10
0.5200000000000001
 20
0.334
 30
0.0
  0
VERTEX
  5
73E
  8
3
 10
0.525
 20
0.334
 30
0.0
  0
VERTEX
  5
73F
  8
3
 10
0.525
 20
0.304
 30
0.0
  0
VERTEX
  5
740
  8
3
 10
0.5350000000000001
 20
0.304
 30
0.0
  0
VERTEX
  5
741
  8
3
 10
0.5350000000000001
 20
0.301
 30
0.0
  0
VERTEX
  5
742
  8
3
 10
0.651
 20
0.301
 30
0.0
  0
VERTEX
  5
743
  8
3
 10
0.651
 20
0.099
 30
0.0
  0
VERTEX
  5
744
  8
3
 10
0.4490000000000001
 20
0.099
 30
0.0
  0
VERTEX
  5
745
  8
3
 10
0.4490000000000001
 20
0.301
 30
0.0
  0
VERTEX
  5
746
  8
3
 10
0.51
 20
0.301
 30
0.0
  0
SEQEND
  5
747
  8
3
  0
POLYLINE
  5
749
  8
4
 66
     1
 10
0.0
 20
0.0
 30
0.0
 70
     1
  0
VERTEX
  5
74A
  8
4
 10
0.11
 20
0.11
 30
0.0
  0
VERTEX
  5
74B
  8
4
 10
0.11
 20
0.29
 30
0.0
  0
VERTEX
  5
74C
  8
4
 10
0.29
 20
0.29
 30
0.0
  0
VERTEX
  5
74D
  8
4
 10
0.29
 20
0.11
 30
0.0
  0
SEQEND
  5
74E
  8
4
  0
POLYLINE
  5
74F
  8
4
 66
     1
 10
0.0
 20
0.0
 30
0.0
 70
     1
  0
VERTEX
  5
750
  8
4
 10
1.5600000000000001
 20
0.11
 30
0.0
  0
VERTEX
  5
751
  8
4
 10
1.5600000000000001
 20
0.29
 30
0.0
  0
VERTEX
  5
752
  8
4
 10
1.74
 20
0.29
 30
0.0
  0
VERTEX
  5
753
  8
4
 10
1.74
 20
0.11
 30
0.0
  0
SEQEND
  5
754
  8
4
  0
POLYLINE
  5
755
  8
4
 66
     1
 10
0.0
 20
0.0
 30
0.0
 70
     1
  0
VERTEX
  5
756
  8
4
 10
1.5600000000000001
 20
0.9099999999999999
 30
0.0
  0
VERTEX
  5
757
  8
4
 10
1.5600000000000001
 20
1.0900000000000001
 30
0.0
  0
VERTEX
  5
758
  8
4
 10
1.74
 20
1.0900000000000001
 30
0.0
  0
VERTEX
  5
759
  8
4
 10
1.74
 20
0.9099999999999999
 30
0.0
  0
SEQEND
  5
75A
  8
4
  0
POLYLINE
  5
75B
  8
4
 66
     1
 10
0.0
 20
0.0
 30
0.0
 70
     1
  0
VERTEX
  5
75C
  8
4
 10
0.9599999999999999
 20
1.8100000000000001
 30
0.0
  0
VERTEX
  5
75D
  8
4
 10
0.9599999999999999
 20
2.3900000000000001
 30
0.0
  0
VERTEX
  5
75E
  8
4
 10
1.1899999999999991
 20
2.3900000000000001
 30
0.0
  0
VERTEX
  5
75F
  8
4
 10
1.1899999999999991
 20
1.8100000000000001
 30
0.0
  0
SEQEND
  5
760
  8
4
  0
ENDSEC
  0
EOF
